<?xml version="1.0" encoding="UTF-8" standalone="no"?>
<!DOCTYPE svg PUBLIC "-//W3C//DTD SVG 1.1//EN" "http://www.w3.org/Graphics/SVG/1.1/DTD/svg11.dtd">
<svg xmlns="http://www.w3.org/2000/svg" version="1.1" viewBox="0 0 512 512">
<path fill="rgb(0,0,0)" fill-opacity="1.000" d="M 0.00 0.00 Q 236.28 0.00 472.56 0.00 Q 466.26 5.89 464.50 13.75 Q 464.20 15.07 463.50 15.54 Q 463.12 15.45 462.75 15.54 Q 461.65 15.25 459.00 15.25 Q 428.12 15.22 397.25 15.29 L 389.50 15.29 L 360.75 15.25 A 1.30 1.14 20.2 0 0 359.89 15.58 L 350.71 24.50 L 340.50 24.79 L 334.25 25.04 Q 237.75 24.97 141.25 25.02 Q 94.44 25.04 60.99 55.10 Q 53.48 61.86 47.41 69.75 Q 25.65 98.04 23.67 134.00 Q 23.50 137.15 23.50 153.99 Q 23.53 242.25 23.46 330.50 Q 22.63 341.12 23.00 347.50 Q 23.12 349.57 22.25 350.46 Q 18.90 353.95 15.58 357.47 Q 14.01 359.14 13.62 360.51 Q 13.17 362.14 13.25 364.25 Q 13.74 377.51 13.46 395.51 Q 13.25 408.69 13.25 415.50 Q 13.25 437.20 13.25 459.22 A 2.03 2.02 -6.0 0 1 11.64 461.20 Q 6.40 462.29 2.25 465.71 Q 0.49 466.57 0.00 468.44 Q 0.00 234.22 0.00 0.00 Z"/>
<path fill="rgb(115,151,159)" fill-opacity="1.000" d="M 472.56 0.00 Q 476.56 0.00 480.56 0.00 Q 480.89 0.83 480.17 1.09 Q 479.51 1.33 479.30 1.49 Q 471.16 7.94 470.25 17.69 Q 469.78 22.74 471.40 27.69 Q 473.14 33.00 476.75 36.50 Q 482.77 42.32 491.29 42.89 Q 497.08 43.28 501.95 41.13 Q 507.10 38.86 510.73 34.21 Q 510.79 34.13 511.05 33.62 Q 511.31 33.08 512.00 33.31 Q 512.00 37.56 512.00 41.81 Q 506.10 47.15 498.25 48.54 Q 497.15 48.14 496.06 48.26 Q 493.97 48.49 493.92 48.49 Q 483.03 48.20 475.31 41.94 Q 463.24 32.14 463.50 15.54 Q 464.20 15.07 464.50 13.75 Q 466.26 5.89 472.56 0.00 Z"/>
<path fill="rgb(126,91,104)" fill-opacity="1.000" d="M 480.56 0.00 Q 496.28 0.00 512.00 0.00 Q 512.00 16.66 512.00 33.31 Q 511.31 33.08 511.05 33.62 Q 510.79 34.13 510.73 34.21 Q 507.10 38.86 501.95 41.13 Q 497.08 43.28 491.29 42.89 Q 482.77 42.32 476.75 36.50 Q 473.14 33.00 471.40 27.69 Q 469.78 22.74 470.25 17.69 Q 471.16 7.94 479.30 1.49 Q 479.51 1.33 480.17 1.09 Q 480.89 0.83 480.56 0.00 Z"/>
<path fill="rgb(101,136,142)" fill-opacity="1.000" d="M 389.50 15.29 Q 389.98 16.00 389.19 16.94 Q 385.01 21.89 383.07 29.19 Q 382.65 30.81 381.81 31.45 Q 380.67 32.32 379.15 32.32 Q 377.46 32.32 377.34 32.33 Q 375.88 32.42 372.50 32.50 Q 367.51 32.62 364.37 29.63 Q 362.44 27.78 360.35 26.12 Q 358.77 24.87 356.90 24.65 Q 354.36 24.35 353.00 24.75 Q 351.56 25.18 350.71 24.50 L 359.89 15.58 A 1.30 1.14 20.2 0 1 360.75 15.25 L 389.50 15.29 Z"/>
<path fill="rgb(87,126,132)" fill-opacity="1.000" d="M 389.50 15.29 L 397.25 15.29 Q 396.87 15.45 396.77 15.76 Q 396.52 16.49 396.40 16.61 Q 389.42 23.92 387.17 33.82 A 1.49 0.79 -88.7 0 1 386.70 34.66 L 385.75 35.29 Q 380.43 35.55 375.11 35.52 Q 374.98 35.52 371.39 35.61 Q 367.53 35.70 365.69 34.56 Q 361.94 32.24 358.63 28.44 A 0.49 0.48 -39.6 0 0 357.97 28.38 Q 352.53 32.72 350.15 39.04 Q 348.60 43.16 349.65 47.08 Q 350.81 51.37 353.90 54.84 Q 355.55 56.67 357.25 58.46 L 353.43 59.12 Q 352.94 59.21 352.55 59.51 Q 350.17 61.36 347.44 59.99 A 1.15 1.07 46.9 0 0 346.54 59.93 Q 344.25 60.81 341.86 60.88 Q 339.65 60.94 337.57 59.40 Q 335.35 57.76 333.35 55.85 A 1.78 1.67 -76.3 0 1 332.88 55.02 Q 331.76 50.52 330.45 46.07 Q 329.81 43.88 330.22 41.74 Q 331.86 33.32 333.50 30.50 Q 334.92 28.07 337.94 28.19 Q 341.06 28.31 340.50 24.79 L 350.71 24.50 Q 351.56 25.18 353.00 24.75 Q 354.36 24.35 356.90 24.65 Q 358.77 24.87 360.35 26.12 Q 362.44 27.78 364.37 29.63 Q 367.51 32.62 372.50 32.50 Q 375.88 32.42 377.34 32.33 Q 377.46 32.32 379.15 32.32 Q 380.67 32.32 381.81 31.45 Q 382.65 30.81 383.07 29.19 Q 385.01 21.89 389.19 16.94 Q 389.98 16.00 389.50 15.29 Z M 351.02 31.05 Q 351.64 30.28 352.11 29.26 A 0.43 0.42 11.4 0 0 351.70 28.66 L 346.00 28.76 A 1.66 1.32 20.7 0 0 345.10 29.05 Q 343.32 30.37 341.78 31.94 Q 340.38 33.38 339.75 35.69 Q 339.10 38.07 338.39 40.43 Q 337.74 42.57 338.16 44.63 Q 338.72 47.39 339.41 50.13 Q 339.81 51.72 340.87 52.90 Q 341.94 54.11 343.08 55.26 Q 345.89 58.09 346.68 58.43 Q 348.72 59.30 352.12 58.64 Q 352.98 58.47 352.39 57.83 Q 341.29 45.59 349.73 32.67 Q 349.75 32.65 351.02 31.05 Z"/>
<path fill="rgb(101,136,142)" fill-opacity="1.000" d="M 397.25 15.29 Q 428.12 15.22 459.00 15.25 Q 461.65 15.25 462.75 15.54 Q 461.50 19.87 463.37 23.91 Q 464.15 25.62 464.21 27.50 Q 462.21 27.35 460.22 27.07 Q 458.03 26.75 456.26 26.76 Q 444.91 26.83 433.56 26.57 A 0.52 0.51 2.3 0 0 433.03 27.05 Q 432.16 40.78 432.78 55.10 Q 432.87 57.28 430.74 57.70 Q 417.08 60.44 406.87 69.42 A 0.78 0.76 -52.8 0 1 406.04 69.54 Q 396.42 65.21 390.81 55.69 Q 390.04 54.38 390.29 53.25 L 426.21 53.02 A 1.25 1.22 -0.0 0 0 427.45 51.81 L 427.50 36.18 A 0.67 0.67 -0.2 0 0 426.83 35.51 Q 406.41 35.36 386.81 35.69 Q 386.63 35.69 385.75 35.29 L 386.70 34.66 A 1.49 0.79 -88.7 0 0 387.17 33.82 Q 389.42 23.92 396.40 16.61 Q 396.52 16.49 396.77 15.76 Q 396.87 15.45 397.25 15.29 Z"/>
<path fill="rgb(80,115,116)" fill-opacity="1.000" d="M 462.75 15.54 Q 463.12 15.45 463.50 15.54 Q 463.24 32.14 475.31 41.94 Q 483.03 48.20 493.92 48.49 Q 493.97 48.49 496.06 48.26 Q 497.15 48.14 498.25 48.54 Q 499.34 50.31 498.71 52.25 Q 496.04 52.59 495.83 50.43 A 0.57 0.54 88.1 0 0 495.31 49.92 L 489.00 49.54 L 482.04 47.75 Q 469.67 42.15 464.71 29.50 Q 464.71 28.44 464.21 27.50 Q 464.15 25.62 463.37 23.91 Q 461.50 19.87 462.75 15.54 Z"/>
<path fill="rgb(80,115,116)" fill-opacity="1.000" d="M 340.50 24.79 Q 341.06 28.31 337.94 28.19 Q 334.92 28.07 333.50 30.50 Q 331.86 33.32 330.22 41.74 Q 329.81 43.88 330.45 46.07 Q 331.76 50.52 332.88 55.02 A 1.78 1.67 -76.3 0 0 333.35 55.85 Q 335.35 57.76 337.57 59.40 Q 339.65 60.94 341.86 60.88 Q 344.25 60.81 346.54 59.93 A 1.15 1.07 46.9 0 1 347.44 59.99 Q 350.17 61.36 352.55 59.51 Q 352.94 59.21 353.43 59.12 L 357.25 58.46 Q 357.78 59.04 358.50 59.29 Q 358.95 60.90 358.50 62.46 Q 352.05 61.67 345.56 62.03 A 0.55 0.54 88.9 0 0 345.05 62.57 Q 344.53 95.47 362.41 122.77 A 0.46 0.45 -30.9 0 1 362.24 123.42 Q 359.70 124.87 359.00 127.50 Q 358.46 129.52 358.17 132.51 Q 357.96 134.72 358.92 136.79 Q 360.43 140.07 362.19 143.22 Q 363.65 145.85 366.05 147.66 Q 369.08 149.95 372.60 152.25 A 2.67 2.66 57.8 0 0 374.34 152.65 Q 380.62 151.86 385.69 150.94 Q 386.60 150.77 387.46 149.65 A 0.52 0.51 -54.2 0 1 388.16 149.53 Q 415.67 168.61 450.00 169.00 Q 451.29 169.01 451.79 168.75 Q 453.45 170.21 453.04 172.51 Q 452.71 174.37 453.17 176.07 Q 453.51 177.31 454.98 178.97 Q 456.26 180.42 457.41 181.88 A 4.47 3.65 73.7 0 0 459.61 183.39 L 470.25 186.11 Q 470.98 186.29 471.81 186.07 L 482.38 183.28 A 2.75 2.62 8.7 0 0 483.94 182.19 L 487.30 177.23 A 1.31 0.55 -6.1 0 1 488.06 176.81 L 489.21 176.50 L 489.21 181.75 Q 488.25 181.61 488.25 182.50 Q 486.43 185.06 484.50 187.54 A 1.52 1.47 -78.0 0 1 483.71 188.07 Q 478.46 189.51 473.17 190.71 Q 470.66 191.28 468.34 190.69 Q 464.91 189.82 458.19 187.81 Q 455.31 186.95 454.35 184.81 Q 454.33 184.78 453.87 182.63 Q 453.32 180.07 450.50 179.93 Q 438.32 179.33 426.32 177.36 Q 415.57 175.58 407.10 172.11 Q 392.66 166.19 380.21 156.50 A 1.45 0.91 52.3 0 0 379.31 156.17 L 372.48 156.70 A 3.09 1.75 -19.1 0 1 370.74 156.38 Q 366.00 153.37 362.07 150.43 Q 359.79 148.72 358.37 146.24 Q 355.71 141.58 353.46 136.71 A 1.48 1.29 -52.6 0 1 353.40 135.76 L 354.64 131.23 A 1.26 1.10 39.6 0 0 354.49 130.32 Q 348.47 120.15 343.88 109.32 Q 339.97 100.08 338.08 90.24 Q 335.38 76.16 335.01 61.75 A 0.91 0.66 -82.9 0 0 334.58 60.97 L 330.99 59.50 Q 329.10 58.72 328.74 57.45 L 324.90 43.93 A 2.02 1.76 -49.5 0 1 324.89 42.93 L 328.19 30.04 A 1.06 1.01 -6.1 0 1 328.77 29.36 Q 332.04 27.87 334.25 25.04 L 340.50 24.79 Z"/>
<path fill="rgb(145,152,112)" fill-opacity="1.000" d="M 334.25 25.04 Q 332.04 27.87 328.77 29.36 A 1.06 1.01 -6.1 0 0 328.19 30.04 L 324.89 42.93 A 2.02 1.76 -49.5 0 0 324.90 43.93 L 328.74 57.45 Q 329.10 58.72 330.99 59.50 L 334.58 60.97 A 0.91 0.66 -82.9 0 1 335.01 61.75 Q 335.38 76.16 338.08 90.24 Q 339.97 100.08 343.88 109.32 Q 348.47 120.15 354.49 130.32 A 1.26 1.10 39.6 0 1 354.64 131.23 L 353.40 135.76 A 1.48 1.29 -52.6 0 0 353.46 136.71 Q 355.71 141.58 358.37 146.24 Q 359.79 148.72 362.07 150.43 Q 366.00 153.37 370.74 156.38 A 3.09 1.75 -19.1 0 0 372.48 156.70 L 379.31 156.17 A 1.45 0.91 52.3 0 1 380.21 156.50 Q 392.66 166.19 407.10 172.11 Q 415.57 175.58 426.32 177.36 Q 438.32 179.33 450.50 179.93 Q 453.32 180.07 453.87 182.63 Q 454.33 184.78 454.35 184.81 Q 455.31 186.95 458.19 187.81 Q 464.91 189.82 468.34 190.69 Q 470.66 191.28 473.17 190.71 Q 478.46 189.51 483.71 188.07 A 1.52 1.47 -78.0 0 0 484.50 187.54 Q 486.43 185.06 488.25 182.50 Q 488.25 181.61 489.21 181.75 Q 489.28 276.37 489.13 371.00 Q 489.09 393.40 481.69 412.44 Q 467.27 449.54 433.45 469.87 Q 424.62 475.17 415.50 478.62 Q 395.29 486.25 372.50 486.25 Q 277.75 486.25 183.00 486.25 Q 181.69 486.25 179.52 486.51 Q 177.77 486.71 176.00 486.71 Q 175.68 485.26 176.70 484.92 Q 177.75 484.57 177.86 484.51 Q 180.49 483.03 183.20 481.68 A 3.20 3.18 -4.5 0 0 184.81 479.81 Q 186.54 474.44 187.98 468.99 Q 188.51 466.99 187.96 465.02 Q 186.47 459.75 184.25 453.62 A 3.73 2.17 10.2 0 0 182.18 451.86 L 178.71 450.50 Q 177.90 435.43 174.81 420.73 Q 172.64 410.43 168.84 401.71 Q 163.60 389.69 156.15 378.80 Q 155.71 378.14 155.21 377.50 L 155.41 372.74 A 1.57 0.49 -80.7 0 0 155.28 371.80 L 149.25 360.84 A 2.88 2.56 2.6 0 0 148.12 359.74 L 136.34 353.45 Q 134.87 352.66 133.46 353.73 Q 132.03 354.81 130.79 354.25 Q 129.81 352.76 128.69 352.06 Q 116.67 344.54 102.36 339.00 Q 92.14 335.04 79.56 333.44 Q 67.42 331.89 59.75 331.46 Q 57.21 331.09 57.00 328.49 Q 56.84 326.59 55.02 326.03 Q 51.12 324.84 46.69 323.84 Q 42.49 322.88 38.73 323.38 Q 32.80 324.17 27.25 326.24 A 1.21 1.16 4.0 0 0 26.64 326.75 Q 23.83 331.46 23.46 330.50 Q 23.53 242.25 23.50 153.99 Q 23.50 137.15 23.67 134.00 Q 25.65 98.04 47.41 69.75 Q 53.48 61.86 60.99 55.10 Q 94.44 25.04 141.25 25.02 Q 237.75 24.97 334.25 25.04 Z M 308.99 72.66 Q 307.75 83.00 299.51 89.25 Q 297.30 90.92 294.91 92.67 A 0.85 0.85 50.1 0 0 294.80 93.94 Q 304.26 103.88 308.72 118.23 A 0.58 0.57 -17.3 0 0 309.44 118.60 Q 315.60 116.64 321.29 114.35 Q 323.97 113.27 325.31 112.01 Q 326.76 110.66 326.21 108.76 Q 322.31 95.26 320.84 82.27 Q 320.10 75.72 319.42 69.16 Q 319.41 69.08 318.95 65.86 Q 318.47 62.53 319.03 59.04 A 0.45 0.44 -85.0 0 0 318.60 58.51 L 308.73 58.49 A 0.79 0.77 82.0 0 0 308.00 59.49 Q 309.80 65.96 308.99 72.66 Z M 167.23 74.17 Q 170.98 75.67 173.96 78.58 A 1.28 1.19 65.6 0 0 174.82 78.94 Q 182.66 78.87 189.70 75.43 A 1.00 0.99 -34.4 0 0 190.00 73.86 Q 184.23 67.61 182.50 59.02 A 0.64 0.64 -5.0 0 0 181.88 58.50 Q 168.00 58.33 154.50 58.82 Q 149.05 59.02 143.61 60.28 A 0.97 0.97 75.6 0 0 142.90 61.48 Q 144.48 67.20 147.28 73.00 A 1.78 1.77 -17.7 0 0 149.19 73.98 Q 154.37 73.07 159.47 73.00 Q 164.10 72.93 167.23 74.17 Z M 229.53 67.69 Q 230.42 64.04 229.98 59.62 A 1.24 1.24 87.2 0 0 228.75 58.50 L 197.14 58.50 A 0.80 0.80 -13.2 0 0 196.42 59.66 Q 200.02 66.85 205.58 72.19 A 1.09 1.08 -33.3 0 0 206.71 72.42 Q 217.36 68.35 228.83 68.25 A 0.72 0.72 -83.4 0 0 229.53 67.69 Z M 242.72 68.53 Q 258.42 73.11 267.88 85.16 A 1.01 0.95 69.9 0 0 268.68 85.56 Q 271.69 85.53 277.25 84.75 Q 284.80 83.69 289.98 79.23 Q 293.70 76.04 294.63 72.31 Q 295.69 68.09 293.56 63.44 Q 292.20 60.44 290.33 58.87 A 1.48 1.28 -21.8 0 0 289.43 58.56 L 244.18 58.50 A 0.69 0.65 -86.0 0 0 243.53 59.10 L 242.36 67.94 A 0.55 0.51 -78.7 0 0 242.72 68.53 Z M 102.21 87.50 L 100.49 88.05 A 1.25 0.59 -75.8 0 0 99.89 88.78 Q 99.05 90.85 97.22 91.88 Q 94.95 93.18 94.26 93.81 Q 92.42 95.49 90.38 96.91 Q 89.54 97.49 88.94 98.41 Q 88.14 99.64 87.56 100.06 Q 84.18 102.56 83.46 106.75 L 78.73 103.75 A 1.29 1.29 37.6 0 0 77.09 103.96 Q 74.31 106.97 72.86 109.34 Q 63.27 125.07 60.92 143.07 Q 60.25 148.20 60.25 158.44 Q 60.25 166.02 60.25 173.85 Q 60.25 175.98 62.31 175.42 Q 69.41 173.46 75.97 168.01 A 1.94 1.94 -27.8 0 0 76.60 165.98 Q 74.28 157.92 79.50 152.66 Q 82.63 149.51 86.77 148.66 Q 91.28 147.74 95.44 150.06 Q 102.69 154.12 106.45 162.74 Q 109.14 168.91 110.66 175.46 Q 112.31 182.59 114.11 189.88 A 1.22 1.21 -24.8 0 0 116.00 190.57 Q 118.39 188.85 119.72 186.46 Q 122.97 180.64 123.79 174.00 Q 128.08 181.37 133.50 187.96 Q 128.73 194.23 126.40 201.76 A 1.14 1.13 -51.7 0 0 126.50 202.67 Q 131.46 211.18 131.51 223.15 A 0.97 0.96 5.9 0 0 132.28 224.09 Q 135.92 224.85 138.56 227.56 Q 141.04 230.10 141.94 233.56 Q 143.00 237.63 141.38 241.42 Q 139.89 244.88 136.52 247.11 Q 128.77 252.21 119.55 244.88 A 1.87 1.84 52.5 0 0 117.67 244.62 Q 112.29 246.91 109.29 252.65 A 1.10 1.09 -69.1 0 0 109.99 254.22 Q 132.60 260.10 153.09 251.13 Q 156.60 249.60 154.95 246.02 Q 152.78 241.28 152.42 236.23 Q 152.07 231.29 153.83 226.45 Q 157.67 215.89 168.44 211.19 Q 171.00 210.07 172.04 208.00 Q 172.50 207.78 173.19 208.06 Q 179.15 210.50 187.56 212.94 Q 188.85 213.31 189.25 215.21 Q 184.70 214.70 179.94 217.69 Q 168.36 224.94 169.49 239.46 A 1.22 1.22 76.8 0 0 171.16 240.50 Q 180.24 236.83 190.49 237.88 Q 199.52 238.80 205.19 244.06 Q 214.39 252.60 217.76 264.80 A 0.67 0.63 61.9 0 0 218.81 265.15 L 228.29 256.56 Q 229.69 255.29 228.96 253.38 L 227.00 248.29 Q 229.43 246.79 230.44 245.94 Q 235.59 241.59 245.20 232.89 A 1.58 1.16 14.9 0 1 246.07 232.55 Q 247.85 232.40 249.04 231.00 L 252.33 234.22 A 0.60 0.57 45.0 0 0 253.13 234.24 L 262.59 225.29 A 0.96 0.96 48.2 0 0 262.66 223.98 Q 249.50 208.39 230.15 200.48 Q 226.78 199.11 222.25 198.75 Q 219.41 198.52 217.71 200.25 Q 216.77 200.16 216.25 197.72 A 2.93 2.92 14.7 0 0 215.30 196.10 Q 209.37 191.01 202.94 187.72 A 1.72 1.22 -27.3 0 0 202.02 187.59 Q 200.13 187.82 199.50 186.04 Q 201.92 186.30 204.31 186.15 Q 206.50 186.01 208.08 184.58 Q 211.63 181.34 213.57 176.80 A 1.26 1.26 -62.4 0 0 213.09 175.25 Q 207.32 171.53 204.28 165.61 Q 202.97 163.05 201.76 158.21 Q 200.47 153.02 200.25 150.50 Q 198.58 131.26 183.69 120.31 Q 172.39 112.01 157.56 112.06 A 0.85 0.81 -75.4 0 0 156.83 112.51 Q 149.54 126.31 134.25 127.00 Q 132.40 127.08 131.75 128.04 Q 131.30 128.07 131.27 127.75 Q 130.59 121.11 128.06 114.94 Q 127.48 114.51 128.04 114.00 Q 129.60 113.28 131.27 112.81 Q 139.67 110.42 144.41 103.23 A 0.65 0.63 41.4 0 0 144.35 102.44 Q 130.78 87.20 126.11 66.65 A 0.53 0.52 72.2 0 0 125.40 66.28 Q 114.44 70.84 104.18 77.78 Q 102.59 78.85 102.72 80.77 Q 102.96 84.42 102.21 87.50 Z M 217.14 96.18 Q 212.56 93.14 211.28 87.06 A 0.37 0.36 70.4 0 0 210.75 86.80 Q 205.08 89.80 199.07 91.89 Q 192.78 94.08 186.69 94.49 Q 173.01 95.41 159.98 90.24 Q 156.98 89.05 158.38 91.96 Q 159.34 93.96 161.02 95.61 Q 162.30 96.87 164.57 97.23 Q 185.55 100.59 201.07 116.19 A 1.21 1.21 -37.0 0 0 202.53 116.39 Q 221.19 105.49 243.00 106.75 Q 244.02 106.81 247.70 107.58 A 0.53 0.52 -76.2 0 0 248.32 107.20 Q 249.77 101.86 249.82 96.35 Q 249.86 91.31 249.76 90.66 Q 249.30 87.74 246.81 85.44 Q 242.09 81.07 236.05 81.75 A 0.46 0.43 80.6 0 0 235.68 82.30 Q 236.91 87.56 234.69 91.69 Q 231.84 96.99 226.43 98.04 Q 221.42 99.02 217.14 96.18 Z M 264.32 110.78 A 1.57 1.56 -53.5 0 0 264.66 113.09 Q 280.49 123.49 283.01 141.92 Q 283.02 142.00 283.10 146.07 Q 283.19 150.65 287.38 152.58 A 1.21 1.20 30.7 0 0 288.84 152.21 Q 299.86 137.62 295.63 121.25 Q 293.45 112.81 288.30 108.86 Q 282.05 104.05 272.77 105.87 Q 267.56 106.89 264.32 110.78 Z M 240.11 146.27 Q 235.99 144.23 233.82 140.29 Q 231.08 135.31 232.25 129.89 Q 233.41 124.54 238.34 120.39 A 0.54 0.53 43.4 0 0 238.31 119.55 Q 235.45 117.45 232.62 117.49 Q 230.34 117.52 227.52 119.80 Q 220.42 125.54 215.61 134.02 A 1.94 1.93 -39.4 0 0 215.45 135.61 Q 218.97 146.05 218.76 156.92 Q 218.76 157.01 218.67 158.06 Q 218.43 160.82 221.50 161.50 Q 245.03 166.75 263.88 154.07 Q 263.94 154.03 265.04 153.37 Q 266.82 152.31 267.08 150.42 Q 267.09 150.35 267.01 146.57 Q 266.86 139.98 264.22 133.90 Q 263.66 132.61 262.55 131.68 Q 261.96 131.18 261.87 131.95 Q 260.22 146.23 248.27 147.59 Q 243.80 148.10 240.11 146.27 Z M 314.92 131.75 Q 314.20 143.47 307.88 153.65 Q 304.93 158.40 301.55 162.85 A 0.77 0.74 -42.8 0 0 301.50 163.68 Q 303.77 167.50 307.72 168.82 Q 309.42 169.39 310.94 168.44 Q 317.12 164.59 323.71 165.70 A 2.85 2.83 27.9 0 0 326.12 164.97 L 345.53 146.61 A 0.61 0.61 48.6 0 0 345.58 145.78 Q 338.50 137.27 333.19 128.25 A 1.13 1.09 79.3 0 0 332.44 127.72 Q 324.00 126.31 316.22 129.86 A 2.22 2.21 79.6 0 0 314.92 131.75 Z M 253.45 179.01 Q 248.61 178.09 244.51 179.86 A 0.91 0.88 82.4 0 0 243.99 180.56 Q 243.34 185.63 244.07 190.70 Q 244.35 192.73 246.19 193.62 Q 261.85 201.24 273.86 214.32 A 0.47 0.46 -43.8 0 0 274.54 214.33 Q 290.15 198.79 306.21 183.70 Q 307.77 182.24 306.38 182.08 Q 305.94 182.03 305.28 182.26 Q 299.44 184.33 294.81 181.94 Q 285.82 177.29 286.64 166.32 A 0.75 0.67 -77.2 0 0 286.24 165.60 Q 283.28 164.33 279.83 165.57 A 1.19 1.19 -33.0 0 0 279.41 167.55 Q 284.27 172.16 284.73 177.99 Q 285.17 183.65 281.67 188.40 Q 278.26 193.04 272.42 194.04 Q 267.01 194.97 262.45 192.36 Q 256.01 188.68 254.44 180.02 A 1.25 1.24 -89.7 0 0 253.45 179.01 Z M 115.87 215.71 Q 105.95 206.06 103.15 194.27 Q 101.60 187.76 100.00 181.25 Q 97.92 172.78 93.76 167.70 A 0.75 0.70 60.0 0 0 92.97 167.46 Q 90.92 168.18 89.56 169.85 A 1.05 0.96 58.9 0 0 89.38 170.74 Q 91.50 179.04 90.38 187.37 Q 90.13 189.21 88.03 196.49 Q 86.71 201.04 86.07 205.76 Q 85.25 211.83 88.15 216.37 Q 90.82 220.55 96.21 222.39 Q 104.53 225.22 112.90 220.22 Q 115.27 218.80 116.08 216.68 A 0.90 0.89 33.2 0 0 115.87 215.71 Z M 345.45 196.92 A 0.64 0.63 32.2 0 0 345.70 197.98 Q 350.21 199.53 354.29 197.52 Q 356.20 196.58 356.26 196.56 Q 364.36 193.18 373.50 194.25 Q 393.38 196.57 403.18 213.56 Q 410.64 226.49 409.12 241.43 A 0.92 0.84 -70.0 0 0 409.46 242.25 Q 411.24 243.56 413.45 243.27 A 0.88 0.80 -81.7 0 0 414.12 242.72 Q 418.94 230.35 415.88 216.70 A 2.27 2.22 -79.9 0 0 414.96 215.35 Q 410.46 212.25 407.57 208.31 Q 404.32 203.89 404.38 199.02 Q 404.45 192.96 408.85 188.05 A 0.35 0.34 31.2 0 0 408.71 187.50 Q 400.02 184.18 396.25 183.00 Q 384.07 179.19 373.05 171.36 A 1.24 1.22 40.4 0 0 371.47 171.47 L 345.45 196.92 Z M 92.21 232.42 L 87.94 230.33 A 2.09 1.61 -40.4 0 0 86.29 230.41 Q 78.45 234.18 72.72 231.17 Q 66.98 228.16 66.08 221.38 Q 65.08 213.76 73.52 208.18 A 4.44 4.40 -7.8 0 0 75.29 205.87 Q 78.78 195.44 78.04 182.49 Q 77.85 179.19 75.47 181.49 Q 70.44 186.34 61.62 190.30 A 2.33 2.32 -12.2 0 0 60.25 192.42 Q 60.25 211.15 60.25 230.04 Q 60.25 232.77 60.76 233.87 Q 61.67 235.82 64.00 236.52 Q 78.25 240.77 88.57 252.24 A 1.04 1.03 52.1 0 0 89.91 252.41 Q 94.36 249.45 96.51 245.69 A 1.21 1.07 -41.6 0 0 96.62 244.77 L 92.89 233.22 A 1.38 1.27 -87.7 0 0 92.21 232.42 Z M 441.84 256.44 Q 445.96 259.37 451.07 260.34 A 0.37 0.36 -84.8 0 0 451.50 259.98 L 451.74 192.27 A 0.76 0.75 0.8 0 0 450.99 191.51 L 429.54 191.23 Q 428.56 191.22 427.70 191.68 Q 423.80 193.75 423.13 197.68 Q 422.80 199.61 424.09 202.07 Q 426.40 206.43 428.69 210.81 Q 431.08 215.39 431.62 221.50 Q 432.00 225.77 431.70 232.49 Q 431.45 238.06 430.39 243.83 A 2.39 2.36 31.9 0 0 430.83 245.67 Q 435.57 251.98 441.84 256.44 Z M 324.91 257.50 Q 328.74 258.44 332.75 258.29 Q 341.29 257.97 346.68 251.64 A 0.65 0.65 -42.1 0 0 346.72 250.85 Q 336.69 236.04 343.33 219.61 Q 344.35 217.08 344.06 215.21 Q 343.23 209.83 338.66 206.54 A 0.61 0.61 -48.6 0 0 337.88 206.59 L 312.21 230.66 Q 310.57 232.19 310.51 234.44 Q 310.35 240.98 312.50 246.54 Q 314.29 251.18 317.92 254.16 Q 320.75 256.48 324.91 257.50 Z M 360.69 214.44 Q 354.03 221.85 356.54 232.04 Q 358.42 239.64 364.09 243.75 Q 369.33 247.55 376.61 247.39 Q 388.85 247.12 394.50 234.75 Q 395.20 233.22 393.77 232.50 A 0.75 0.67 -53.3 0 0 392.96 232.67 Q 388.79 236.77 383.32 236.75 Q 379.55 236.73 376.32 234.86 Q 372.77 232.81 371.31 229.19 Q 367.66 220.10 375.06 213.66 Q 375.09 213.63 376.92 212.36 Q 378.97 210.93 377.36 209.41 Q 376.42 208.52 374.72 208.48 Q 366.22 208.29 360.69 214.44 Z M 286.54 259.75 L 286.31 260.16 A 0.83 0.53 14.5 0 1 285.55 260.41 Q 284.01 260.19 284.12 261.69 A 1.17 0.94 69.2 0 1 283.84 262.54 Q 278.13 268.28 275.25 270.25 Q 272.56 272.09 270.79 273.62 Q 267.66 276.33 266.52 277.14 Q 262.90 279.70 259.50 282.54 Q 257.73 280.04 256.05 281.91 Q 255.05 283.04 254.96 283.13 Q 253.48 284.50 252.13 285.76 A 1.03 1.02 48.1 0 0 252.06 287.18 Q 263.38 300.21 278.82 307.67 Q 284.24 310.28 286.06 310.91 Q 289.86 312.23 294.00 312.21 Q 294.09 313.11 295.44 313.81 Q 298.43 315.37 312.00 323.25 Q 313.56 324.16 314.00 324.96 Q 312.15 324.72 310.32 324.82 Q 308.46 324.92 307.08 326.15 Q 303.54 329.30 301.26 334.40 A 1.01 1.01 -59.8 0 0 301.58 335.62 Q 312.20 343.38 313.76 355.57 Q 314.36 360.30 314.59 361.40 Q 315.18 364.28 315.80 367.16 Q 316.91 372.30 318.52 375.57 Q 325.42 389.58 340.69 395.81 Q 349.13 399.26 357.50 399.02 A 0.87 0.84 -77.1 0 0 358.22 398.55 Q 365.31 384.46 381.50 384.00 Q 382.25 383.98 383.00 383.21 Q 383.39 383.80 383.25 385.25 Q 382.78 390.27 384.61 395.05 A 1.34 1.34 -14.5 0 0 386.06 395.90 Q 388.04 395.62 388.11 397.75 Q 388.17 399.64 387.21 401.25 L 385.03 398.80 A 2.38 1.81 63.8 0 0 383.43 398.00 Q 373.50 398.07 368.22 406.27 A 2.36 2.35 -46.2 0 0 368.27 408.89 Q 374.67 418.07 380.69 428.06 Q 384.80 434.90 387.20 445.45 A 0.50 0.48 76.0 0 0 387.79 445.82 Q 392.64 444.53 397.96 441.86 A 2.85 2.82 -88.8 0 0 399.20 440.66 Q 403.45 432.82 406.04 424.25 Q 407.40 424.41 408.31 423.31 Q 410.52 420.66 413.83 419.31 Q 416.02 418.43 417.25 417.50 Q 418.83 416.32 420.42 415.16 Q 422.63 413.56 424.41 411.17 Q 427.59 406.88 431.39 403.10 A 1.36 0.96 76.0 0 0 431.72 402.25 Q 431.76 401.23 432.75 400.71 L 435.52 402.13 A 0.99 0.66 -44.3 0 0 436.40 401.96 Q 443.68 396.74 447.42 389.02 Q 449.92 383.84 450.81 376.15 Q 451.50 370.14 451.50 362.75 Q 451.50 349.63 451.50 336.48 A 0.77 0.76 -10.6 0 0 450.46 335.77 Q 443.71 338.39 439.45 342.47 Q 438.06 343.80 437.91 345.73 Q 437.17 355.41 428.74 357.90 Q 427.40 358.30 426.01 358.12 Q 421.34 357.55 417.72 355.66 Q 414.55 354.02 411.33 350.15 Q 400.53 337.23 400.32 319.86 Q 400.30 318.74 399.82 318.16 Q 398.79 316.91 397.56 318.56 Q 392.73 325.07 392.96 333.75 Q 393.00 332.58 392.31 332.58 A 1.29 0.63 -9.6 0 1 391.46 332.33 Q 386.56 327.41 381.00 323.29 Q 385.64 317.71 388.11 309.56 A 2.57 2.57 -51.5 0 0 387.88 307.54 Q 382.64 298.50 383.48 287.96 A 0.81 0.80 -79.6 0 0 382.90 287.11 Q 378.43 285.82 375.73 282.84 Q 373.18 280.03 372.73 275.54 Q 371.88 266.97 379.37 263.22 Q 383.51 261.15 387.39 261.87 Q 391.50 262.64 394.94 266.06 A 1.91 1.89 -33.0 0 0 396.97 266.48 Q 402.80 264.18 405.65 258.22 A 0.85 0.85 23.7 0 0 405.20 257.07 Q 401.61 255.59 397.78 255.04 Q 379.28 252.41 362.19 259.69 Q 360.02 260.61 359.48 262.43 Q 359.12 263.63 360.10 265.79 Q 364.19 274.73 361.25 283.75 Q 357.39 295.61 345.06 300.56 Q 342.97 301.40 342.21 304.50 Q 340.41 304.71 338.79 303.98 Q 331.66 300.79 324.85 296.95 Q 324.70 296.86 324.10 296.67 Q 323.43 296.46 323.75 295.79 Q 329.85 296.44 333.69 294.19 Q 346.51 286.67 345.50 271.48 A 1.26 1.25 -9.9 0 0 343.90 270.36 Q 341.00 271.19 337.95 272.09 Q 327.36 275.21 317.04 271.40 Q 313.10 269.94 308.56 265.69 Q 300.33 257.97 297.58 247.33 Q 296.95 244.88 295.01 246.49 Q 292.12 248.89 289.43 251.48 Q 286.52 254.27 286.26 254.70 Q 284.94 256.86 286.54 259.75 Z M 74.37 255.62 Q 69.39 251.56 62.22 250.65 Q 60.25 250.40 60.25 252.39 L 60.25 316.28 A 0.72 0.72 0.4 0 0 60.96 317.00 Q 71.81 317.20 82.77 318.63 Q 86.47 319.11 88.64 316.15 Q 90.43 313.69 91.08 311.35 A 3.37 3.35 -53.7 0 0 90.67 308.62 Q 81.26 294.08 82.99 277.81 Q 83.57 272.38 84.45 267.31 A 2.82 2.80 30.0 0 0 83.83 265.03 Q 79.32 259.67 74.37 255.62 Z M 191.67 254.08 Q 187.88 252.75 183.75 252.67 Q 174.45 252.48 168.27 258.85 A 1.02 1.01 51.1 0 0 168.14 260.10 Q 177.73 275.14 171.08 292.86 Q 170.40 294.65 170.72 296.55 Q 171.51 301.29 176.51 304.76 A 1.29 1.28 -48.4 0 0 178.10 304.66 Q 191.21 292.95 203.60 280.29 A 1.59 1.54 71.4 0 0 204.01 279.43 Q 204.84 273.56 203.06 266.94 Q 201.67 261.73 198.36 258.25 Q 195.74 255.51 191.67 254.08 Z M 439.49 326.17 Q 443.92 322.69 450.68 320.55 A 1.54 1.53 81.2 0 0 451.75 319.08 L 451.75 276.03 A 1.31 1.31 -80.7 0 0 450.86 274.79 Q 436.12 269.81 425.59 258.42 A 0.54 0.49 46.2 0 0 424.85 258.37 L 418.44 264.74 A 1.71 1.56 59.5 0 0 418.08 266.44 L 422.00 277.85 A 1.32 0.93 85.8 0 0 422.61 278.59 L 427.76 280.88 A 1.12 0.75 -43.8 0 0 428.67 280.72 Q 434.43 276.98 440.13 278.98 Q 444.41 280.48 446.97 284.19 Q 449.77 288.24 448.75 293.25 Q 447.35 300.12 441.01 302.91 A 1.83 1.81 87.9 0 0 440.00 304.01 Q 437.23 312.25 436.75 320.75 Q 436.53 324.76 438.97 326.62 A 0.18 0.18 46.3 0 0 439.19 326.63 Q 439.24 326.59 439.27 326.53 Q 439.44 326.21 439.49 326.17 Z M 120.92 278.55 A 0.60 0.58 40.9 0 0 121.60 278.51 Q 131.33 270.54 139.22 276.89 Q 143.80 280.58 144.48 285.98 Q 145.25 292.14 140.27 296.85 Q 140.21 296.91 138.08 298.42 Q 135.78 300.07 137.88 302.16 A 1.41 1.28 -19.1 0 0 138.75 302.53 Q 152.01 303.12 157.58 291.25 Q 159.41 287.34 159.06 283.00 Q 158.33 273.85 152.36 268.63 Q 146.79 263.75 138.62 263.64 Q 126.39 263.47 120.37 276.19 Q 119.63 277.77 120.92 278.55 Z M 105.36 324.21 Q 124.11 329.93 140.82 339.50 A 0.67 0.65 37.4 0 0 141.61 339.41 L 165.09 317.06 A 1.63 1.61 51.9 0 0 165.32 315.00 Q 162.88 311.20 157.84 309.10 A 3.16 3.15 -41.3 0 0 155.73 308.97 Q 142.09 312.85 130.32 308.60 Q 120.86 305.19 114.09 297.31 Q 104.09 285.67 105.02 268.45 A 1.34 1.33 -78.9 0 0 104.13 267.12 Q 100.97 266.01 99.45 269.19 Q 93.28 282.22 97.81 295.94 Q 98.28 297.35 100.19 299.22 Q 102.04 301.03 102.78 302.25 Q 108.88 312.32 105.22 323.95 A 0.21 0.21 16.8 0 0 105.36 324.21 Z M 401.19 297.26 Q 404.49 300.36 407.69 303.56 Q 412.41 308.30 414.68 314.36 Q 415.68 317.02 417.31 324.05 Q 418.45 328.94 419.13 333.93 Q 419.81 338.94 424.74 340.33 A 0.31 0.31 -88.9 0 0 425.12 339.96 Q 423.94 334.64 423.72 329.35 Q 423.56 325.36 424.51 318.72 Q 425.60 311.20 426.66 303.68 Q 427.36 298.79 425.26 294.94 Q 423.38 291.49 419.10 289.27 Q 412.59 285.89 405.28 287.64 Q 402.76 288.24 400.68 289.79 Q 396.17 293.14 399.62 295.97 Q 401.13 297.21 401.19 297.26 Z M 260.92 331.81 Q 265.77 333.10 270.29 331.20 A 0.89 0.84 82.9 0 0 270.81 330.49 Q 271.46 324.87 270.58 319.73 A 2.65 2.65 9.0 0 0 269.19 317.82 Q 253.11 309.49 240.91 296.93 A 0.50 0.49 45.8 0 0 240.21 296.91 L 208.17 327.67 A 0.76 0.75 -56.5 0 0 208.42 328.92 Q 210.18 329.58 212.26 330.23 Q 214.70 330.99 216.01 331.67 Q 224.07 335.85 227.62 344.47 A 1.68 1.31 88.3 0 0 228.23 345.21 Q 231.70 347.31 235.61 344.88 A 0.77 0.77 47.8 0 0 235.67 343.61 Q 232.62 341.24 231.08 337.72 Q 229.69 334.53 230.06 330.60 Q 230.80 322.76 236.95 319.05 Q 242.51 315.71 248.97 317.35 Q 258.27 319.71 260.32 331.16 A 0.84 0.84 -87.7 0 0 260.92 331.81 Z M 190.52 345.27 A 1.80 1.78 26.1 0 0 189.09 345.75 L 169.36 364.41 A 0.56 0.55 49.5 0 0 169.31 365.15 Q 176.98 375.19 183.07 386.25 A 0.57 0.55 63.6 0 0 183.77 386.50 L 194.49 381.89 A 0.93 0.87 84.0 0 0 195.02 381.19 Q 198.03 363.85 208.75 349.95 Q 210.04 348.28 212.02 346.66 A 0.81 0.81 48.4 0 0 212.09 345.46 Q 208.79 342.16 205.06 342.06 A 1.64 1.36 -57.6 0 0 204.16 342.35 Q 198.70 346.15 190.52 345.27 Z M 273.13 364.03 Q 275.59 364.96 277.59 366.61 Q 280.40 368.93 281.84 372.67 Q 285.34 381.78 277.62 389.77 Q 276.24 391.19 278.21 391.00 Q 280.94 390.74 283.37 389.68 Q 285.33 388.82 287.60 386.63 Q 293.51 380.94 298.48 374.70 A 1.38 1.37 -35.2 0 0 298.71 373.40 Q 296.04 365.14 296.21 356.55 Q 296.23 355.42 296.10 353.96 Q 295.99 352.70 296.00 351.38 A 1.43 1.43 -82.1 0 0 294.95 349.99 Q 274.24 344.28 255.30 354.05 Q 251.52 356.00 249.06 358.34 Q 247.85 359.50 247.79 361.18 Q 247.46 370.38 250.67 377.82 Q 251.19 379.00 252.25 379.21 A 0.50 0.45 -82.5 0 0 252.79 378.75 Q 254.16 364.00 268.14 363.32 Q 270.90 363.19 273.13 364.03 Z M 226.20 401.55 Q 235.22 408.73 246.11 404.04 A 1.82 1.61 -10.8 0 0 247.20 402.63 L 247.75 395.39 A 2.02 1.78 19.9 0 0 246.79 393.64 Q 228.11 382.05 229.09 358.34 Q 229.17 356.29 227.13 356.37 Q 224.34 356.46 221.56 359.82 Q 215.56 367.07 214.57 375.96 Q 213.75 383.30 216.94 390.01 Q 220.12 396.71 226.20 401.55 Z M 206.69 433.88 Q 210.07 423.79 219.95 418.43 A 0.75 0.75 54.3 0 0 220.14 417.26 Q 210.38 406.93 206.14 392.89 A 0.62 0.61 73.3 0 0 205.38 392.47 Q 196.80 394.96 189.62 398.71 A 1.27 1.27 68.2 0 0 188.99 400.19 Q 193.73 416.46 194.59 433.15 Q 194.80 437.29 195.47 442.31 Q 196.08 446.88 196.25 451.51 A 1.03 1.02 88.8 0 0 197.27 452.50 L 206.36 452.50 A 0.41 0.40 83.2 0 0 206.75 452.00 Q 205.65 447.49 205.49 442.90 Q 205.32 437.98 206.69 433.88 Z M 266.69 425.31 Q 271.67 429.79 278.46 429.44 A 0.72 0.72 82.6 0 0 279.12 428.58 Q 277.53 420.56 282.60 416.07 Q 286.92 412.26 292.68 412.92 Q 298.96 413.65 302.12 420.16 Q 302.31 420.55 302.73 421.89 Q 303.00 422.78 303.48 423.57 A 0.56 0.55 -27.3 0 0 304.20 423.79 Q 307.02 422.51 315.94 418.69 Q 327.06 413.92 338.60 416.52 Q 345.37 418.05 351.91 421.36 A 1.61 1.50 24.0 0 0 354.11 420.60 L 356.00 415.51 A 0.69 0.63 18.9 0 0 355.54 414.67 Q 344.54 411.19 334.12 407.77 Q 322.51 403.97 313.42 395.80 A 1.30 1.29 -36.2 0 0 312.01 395.59 Q 306.45 398.16 300.62 400.05 Q 293.38 402.38 288.82 403.20 Q 278.11 405.12 267.67 401.88 Q 265.54 401.22 264.63 403.26 Q 261.98 409.19 261.40 415.27 Q 261.12 418.27 262.47 420.44 Q 263.98 422.88 266.69 425.31 Z M 272.01 442.30 Q 255.37 438.03 245.63 423.55 A 1.85 1.85 74.0 0 0 244.15 422.73 Q 230.75 422.35 222.08 433.10 Q 216.45 440.09 218.69 449.31 Q 219.33 451.98 221.41 452.46 Q 221.57 452.50 225.10 452.50 Q 247.22 452.50 270.42 452.50 A 1.11 1.04 -86.6 0 0 271.46 451.51 L 272.42 442.94 A 0.60 0.56 -79.8 0 0 272.01 442.30 Z M 352.95 437.17 Q 346.35 435.62 341.30 430.91 A 1.76 1.58 68.4 0 0 340.44 430.48 Q 331.27 429.13 322.80 432.82 A 1.10 1.09 -31.7 0 0 322.39 434.53 Q 326.11 438.95 329.44 443.81 Q 330.95 446.03 332.33 451.83 A 0.65 0.64 -5.2 0 0 332.94 452.33 Q 346.35 452.80 359.75 452.39 Q 365.29 452.22 370.90 450.89 A 1.25 1.24 75.6 0 0 371.81 449.35 Q 370.43 444.27 368.58 440.22 Q 368.53 440.11 368.06 438.73 Q 367.30 436.51 364.50 437.00 Q 362.06 437.43 358.71 437.59 Q 355.44 437.76 352.95 437.17 Z M 285.49 452.31 L 317.96 452.44 A 0.51 0.49 78.5 0 0 318.41 451.74 Q 315.22 444.17 309.06 438.64 A 0.82 0.80 -34.8 0 0 308.22 438.50 Q 297.53 442.71 285.99 442.75 A 0.78 0.78 6.5 0 0 285.23 443.35 Q 284.27 447.33 284.77 451.64 A 0.75 0.73 87.3 0 0 285.49 452.31 Z"/>
<path fill="rgb(85,123,131)" fill-opacity="1.000" d="M 464.21 27.50 Q 464.71 28.44 464.71 29.50 L 436.92 29.74 A 0.93 0.91 -0.3 0 0 436.00 30.65 L 436.00 65.30 A 2.13 1.92 24.4 0 0 436.63 66.74 L 448.69 78.56 A 3.30 2.85 64.2 0 0 450.84 79.49 L 484.31 79.32 A 0.52 0.52 90.0 0 0 484.83 78.80 L 484.75 49.94 A 1.23 1.19 2.1 0 0 483.62 48.76 Q 481.80 48.60 482.04 47.75 L 489.00 49.54 Q 487.68 50.36 487.86 51.68 Q 488.01 52.74 488.01 52.84 Q 488.16 66.33 487.98 81.27 A 1.20 1.15 -89.7 0 1 486.83 82.46 L 458.57 82.50 A 0.58 0.56 3.4 0 0 458.00 82.99 Q 456.27 97.03 446.84 107.38 A 0.73 0.70 -38.6 0 0 446.73 108.19 Q 450.97 116.34 458.75 121.25 Q 459.37 121.64 460.96 121.50 Q 461.16 132.59 460.87 143.68 Q 460.74 148.33 459.50 151.11 Q 457.93 154.62 455.14 157.49 A 0.54 0.53 -44.6 0 0 455.13 158.23 Q 458.25 161.54 461.38 163.88 Q 465.26 166.78 469.73 166.94 Q 473.69 167.08 477.89 164.68 Q 481.67 162.53 485.13 158.98 A 1.50 1.50 -48.5 0 0 485.00 156.77 Q 481.75 154.13 480.02 150.87 Q 478.75 148.48 478.74 144.39 Q 478.73 135.20 478.79 126.00 Q 488.76 124.33 498.41 117.63 A 0.91 0.90 -25.6 0 0 498.76 116.65 Q 498.36 115.26 498.71 115.00 L 498.71 123.50 L 497.75 123.67 A 1.60 1.49 15.4 0 0 496.91 124.11 Q 493.80 127.27 489.52 128.57 Q 486.12 129.61 482.36 130.88 A 0.85 0.84 -8.6 0 0 481.79 131.65 Q 481.49 139.50 482.10 146.49 Q 482.29 148.69 483.57 150.50 Q 486.13 154.12 488.94 157.56 Q 490.16 159.06 488.69 161.19 Q 488.19 161.91 489.25 161.79 Q 488.37 162.22 488.96 163.10 A 1.71 1.66 28.7 0 1 489.25 164.04 L 489.21 176.50 L 488.06 176.81 A 1.31 0.55 -6.1 0 0 487.30 177.23 L 483.94 182.19 A 2.75 2.62 8.7 0 1 482.38 183.28 L 471.81 186.07 Q 470.98 186.29 470.25 186.11 L 459.61 183.39 A 4.47 3.65 73.7 0 1 457.41 181.88 Q 456.26 180.42 454.98 178.97 Q 453.51 177.31 453.17 176.07 Q 452.71 174.37 453.04 172.51 Q 453.45 170.21 451.79 168.75 Q 452.16 164.01 451.94 159.25 Q 451.80 156.44 453.94 154.69 Q 456.43 152.64 457.64 149.85 Q 458.51 147.84 458.36 144.02 Q 458.08 136.38 458.47 128.74 A 1.27 1.14 -66.4 0 0 458.18 127.86 Q 456.99 126.48 454.06 124.44 Q 447.81 120.08 442.76 112.17 A 0.44 0.44 -35.1 0 0 442.11 112.06 Q 427.79 123.50 409.49 120.58 A 1.12 1.10 -59.6 0 0 408.61 120.82 Q 402.90 125.57 401.19 128.44 Q 398.54 132.87 398.97 140.25 A 0.80 0.78 73.9 0 1 398.57 140.99 Q 393.76 143.71 389.79 147.59 A 1.62 1.54 -70.5 0 1 388.95 148.02 Q 384.98 148.72 380.95 148.84 Q 376.41 148.97 373.21 147.31 Q 370.42 145.86 368.19 143.61 Q 366.61 142.01 365.06 138.86 Q 363.76 136.22 362.47 133.74 A 2.82 2.79 -53.7 0 1 362.20 131.92 Q 363.00 127.52 363.56 124.81 Q 363.80 123.66 363.38 123.08 A 0.61 0.47 49.2 0 1 363.34 122.38 Q 365.97 119.57 368.19 118.19 Q 371.74 115.97 373.51 112.94 A 0.94 0.90 -76.4 0 1 374.25 112.47 Q 377.44 112.29 380.61 111.97 Q 383.35 111.69 385.38 110.32 Q 389.66 107.42 392.89 103.32 A 1.41 1.34 64.7 0 0 393.18 102.44 Q 392.84 86.58 402.44 74.14 A 0.40 0.40 32.2 0 0 402.30 73.53 Q 391.04 67.94 385.11 56.48 A 0.88 0.86 76.5 0 0 384.36 56.01 Q 376.74 55.86 369.74 56.11 Q 365.51 56.26 363.06 59.31 Q 361.10 61.76 358.50 62.46 Q 358.95 60.90 358.50 59.29 Q 359.96 58.07 361.40 56.82 Q 363.21 55.23 364.44 54.59 Q 367.94 52.77 371.95 52.89 Q 374.97 52.97 375.06 52.97 Q 382.68 52.85 390.29 53.25 Q 390.04 54.38 390.81 55.69 Q 396.42 65.21 406.04 69.54 A 0.78 0.76 -52.8 0 0 406.87 69.42 Q 417.08 60.44 430.74 57.70 Q 432.87 57.28 432.78 55.10 Q 432.16 40.78 433.03 27.05 A 0.52 0.51 2.3 0 1 433.56 26.57 Q 444.91 26.83 456.26 26.76 Q 458.03 26.75 460.22 27.07 Q 462.21 27.35 464.21 27.50 Z M 431.56 63.72 Q 421.09 64.37 412.55 71.25 Q 411.86 71.81 412.73 71.95 Q 423.97 73.84 433.56 68.50 A 0.64 0.54 -26.6 0 0 433.87 67.77 L 432.32 64.12 A 0.81 0.67 -11.9 0 0 431.56 63.72 Z M 440.31 78.70 A 0.67 0.66 33.0 0 0 441.41 78.47 Q 442.43 75.64 440.76 74.65 Q 440.29 74.37 440.05 74.01 Q 438.28 71.35 435.87 73.41 A 0.49 0.48 47.8 0 0 435.84 74.11 L 440.31 78.70 Z M 425.95 77.70 Q 407.97 94.22 390.06 110.81 Q 384.29 116.17 376.00 115.31 A 0.50 0.49 5.8 0 0 375.45 115.75 Q 374.88 121.84 375.75 126.00 Q 377.64 135.00 386.98 137.59 Q 391.04 138.72 395.29 138.75 A 0.80 0.80 -84.5 0 0 396.09 138.09 Q 396.76 134.52 397.17 131.78 Q 397.85 127.27 401.03 124.03 Q 418.95 105.83 437.06 87.81 Q 439.65 85.24 440.52 83.70 A 0.65 0.65 -53.7 0 0 440.40 82.90 L 430.88 73.84 A 0.55 0.54 -45.0 0 0 430.13 73.85 Q 428.04 75.78 425.95 77.70 Z M 407.21 76.61 Q 398.88 85.89 399.06 97.43 Q 399.07 98.25 399.68 97.70 L 420.50 78.50 Q 421.66 77.43 420.25 77.50 Q 414.50 77.77 408.54 76.21 A 1.32 1.32 28.2 0 0 407.21 76.61 Z M 445.71 81.57 Q 441.35 91.33 444.07 100.95 Q 444.35 101.96 444.98 101.13 Q 450.88 93.36 451.65 83.55 A 0.69 0.59 14.7 0 0 451.21 82.92 L 446.84 81.18 A 0.91 0.82 22.8 0 0 445.71 81.57 Z M 416.08 115.06 A 0.91 0.89 -15.0 0 0 416.86 115.50 Q 430.31 115.43 439.58 106.54 A 0.94 0.84 63.6 0 0 439.81 105.70 L 436.99 92.85 Q 436.78 91.91 436.15 92.61 Q 426.74 102.98 416.38 112.63 Q 415.27 113.66 416.08 115.06 Z M 391.48 141.24 Q 383.52 140.81 378.05 136.45 Q 375.52 134.44 374.32 131.44 Q 372.25 126.30 371.99 120.51 A 0.46 0.46 -14.1 0 0 371.33 120.12 Q 368.31 121.59 367.25 124.00 Q 366.27 126.23 365.56 132.00 A 1.85 1.77 -54.6 0 0 365.70 132.95 Q 366.74 135.24 367.84 137.49 Q 369.22 140.31 371.02 141.86 Q 373.06 143.63 375.50 144.81 Q 377.49 145.78 380.17 145.55 Q 382.61 145.35 385.04 145.12 Q 387.40 144.90 388.67 144.15 Q 390.18 143.26 391.66 141.67 Q 392.04 141.27 391.48 141.24 Z M 455.11 164.35 Q 454.79 165.97 455.01 167.77 Q 455.20 169.34 456.48 170.67 Q 457.92 172.17 459.44 173.60 Q 459.49 173.64 460.37 174.59 Q 461.66 175.98 464.19 176.81 Q 470.12 178.77 475.39 177.50 Q 480.37 176.30 482.82 173.84 Q 485.90 170.73 485.14 164.92 Q 484.96 163.54 483.89 164.43 Q 470.36 175.63 456.59 163.83 A 0.91 0.91 -64.2 0 0 455.11 164.35 Z"/>
<path fill="rgb(115,151,159)" fill-opacity="1.000" d="M 385.75 35.29 Q 386.63 35.69 386.81 35.69 Q 406.41 35.36 426.83 35.51 A 0.67 0.67 0.4 0 1 427.50 36.18 L 427.45 51.81 A 1.25 1.22 -0.0 0 1 426.21 53.02 L 390.29 53.25 Q 382.68 52.85 375.06 52.97 Q 374.97 52.97 371.95 52.89 Q 367.94 52.77 364.44 54.59 Q 363.21 55.23 361.40 56.82 Q 359.96 58.07 358.50 59.29 Q 357.78 59.04 357.25 58.46 Q 355.55 56.67 353.90 54.84 Q 350.81 51.37 349.65 47.08 Q 348.60 43.16 350.15 39.04 Q 352.53 32.72 357.97 28.38 A 0.49 0.48 -39.6 0 1 358.63 28.44 Q 361.94 32.24 365.69 34.56 Q 367.53 35.70 371.39 35.61 Q 374.98 35.52 375.11 35.52 Q 380.43 35.55 385.75 35.29 Z"/>
<path fill="rgb(100,137,141)" fill-opacity="1.000" d="M 349.73 32.67 Q 341.29 45.59 352.39 57.83 Q 352.98 58.47 352.12 58.64 Q 348.72 59.30 346.68 58.43 Q 345.89 58.09 343.08 55.26 Q 341.94 54.11 340.87 52.90 Q 339.81 51.72 339.41 50.13 Q 338.72 47.39 338.16 44.63 Q 337.74 42.57 338.39 40.43 Q 339.10 38.07 339.75 35.69 Q 340.38 33.38 341.78 31.94 Q 343.32 30.37 345.10 29.05 A 1.66 1.32 20.7 0 1 346.00 28.76 L 351.70 28.66 A 0.43 0.42 11.4 0 1 352.11 29.26 Q 351.64 30.28 351.02 31.05 Q 349.75 32.65 349.73 32.67 Z"/>
<path fill="rgb(115,151,159)" fill-opacity="1.000" d="M 464.71 29.50 Q 469.67 42.15 482.04 47.75 Q 481.80 48.60 483.62 48.76 A 1.23 1.19 2.1 0 1 484.75 49.94 L 484.83 78.80 A 0.52 0.52 -90.0 0 1 484.31 79.32 L 450.84 79.49 A 3.30 2.85 64.2 0 1 448.69 78.56 L 436.63 66.74 A 2.13 1.92 24.4 0 1 436.00 65.30 L 436.00 30.65 A 0.93 0.91 -0.3 0 1 436.92 29.74 L 464.71 29.50 Z"/>
<path fill="rgb(0,0,0)" fill-opacity="1.000" d="M 512.00 41.81 Q 512.00 276.91 512.00 512.00 Q 276.34 512.00 40.69 512.00 Q 41.14 511.61 41.75 511.71 Q 42.58 511.83 42.94 511.44 Q 48.57 505.28 49.91 497.92 A 1.72 1.72 -85.0 0 1 51.60 496.50 L 150.78 496.50 A 1.79 1.43 18.6 0 0 151.93 496.08 L 160.54 488.00 Q 162.10 486.44 164.17 486.62 Q 165.78 486.75 165.86 486.75 Q 170.93 486.75 176.00 486.71 Q 177.77 486.71 179.52 486.51 Q 181.69 486.25 183.00 486.25 Q 277.75 486.25 372.50 486.25 Q 395.29 486.25 415.50 478.62 Q 424.62 475.17 433.45 469.87 Q 467.27 449.54 481.69 412.44 Q 489.09 393.40 489.13 371.00 Q 489.28 276.37 489.21 181.75 L 489.21 176.50 L 489.25 164.04 A 1.71 1.66 28.7 0 0 488.96 163.10 Q 488.37 162.22 489.25 161.79 Q 492.91 158.12 496.50 154.39 Q 496.56 154.33 497.72 153.34 Q 499.09 152.15 498.91 150.36 Q 498.75 148.71 498.75 148.64 Q 498.78 136.07 498.71 123.50 L 498.71 115.00 L 498.71 52.25 Q 499.34 50.31 498.25 48.54 Q 506.10 47.15 512.00 41.81 Z"/>
<path fill="rgb(101,136,142)" fill-opacity="1.000" d="M 489.00 49.54 L 495.31 49.92 A 0.57 0.54 88.1 0 1 495.83 50.43 Q 496.04 52.59 498.71 52.25 L 498.71 115.00 Q 498.36 115.26 498.76 116.65 A 0.91 0.90 -25.6 0 1 498.41 117.63 Q 488.76 124.33 478.79 126.00 L 478.53 89.98 A 1.19 1.15 89.7 0 0 477.38 88.80 L 461.94 88.75 A 0.69 0.68 -0.0 0 0 461.25 89.43 L 460.96 121.50 Q 459.37 121.64 458.75 121.25 Q 450.97 116.34 446.73 108.19 A 0.73 0.70 -38.6 0 1 446.84 107.38 Q 456.27 97.03 458.00 82.99 A 0.58 0.56 3.4 0 1 458.57 82.50 L 486.83 82.46 A 1.20 1.15 -89.7 0 0 487.98 81.27 Q 488.16 66.33 488.01 52.84 Q 488.01 52.74 487.86 51.68 Q 487.68 50.36 489.00 49.54 Z"/>
<path fill="rgb(101,136,142)" fill-opacity="1.000" d="M 451.79 168.75 Q 451.29 169.01 450.00 169.00 Q 415.67 168.61 388.16 149.53 A 0.52 0.51 -54.2 0 0 387.46 149.65 Q 386.60 150.77 385.69 150.94 Q 380.62 151.86 374.34 152.65 A 2.67 2.66 57.8 0 1 372.60 152.25 Q 369.08 149.95 366.05 147.66 Q 363.65 145.85 362.19 143.22 Q 360.43 140.07 358.92 136.79 Q 357.96 134.72 358.17 132.51 Q 358.46 129.52 359.00 127.50 Q 359.70 124.87 362.24 123.42 A 0.46 0.45 -30.9 0 0 362.41 122.77 Q 344.53 95.47 345.05 62.57 A 0.55 0.54 88.9 0 1 345.56 62.03 Q 352.05 61.67 358.50 62.46 Q 361.10 61.76 363.06 59.31 Q 365.51 56.26 369.74 56.11 Q 376.74 55.86 384.36 56.01 A 0.88 0.86 76.5 0 1 385.11 56.48 Q 391.04 67.94 402.30 73.53 A 0.40 0.40 32.2 0 1 402.44 74.14 Q 392.84 86.58 393.18 102.44 A 1.41 1.34 64.7 0 1 392.89 103.32 Q 389.66 107.42 385.38 110.32 Q 383.35 111.69 380.61 111.97 Q 377.44 112.29 374.25 112.47 A 0.94 0.90 -76.4 0 0 373.51 112.94 Q 371.74 115.97 368.19 118.19 Q 365.97 119.57 363.34 122.38 A 0.61 0.47 49.2 0 0 363.38 123.08 Q 363.80 123.66 363.56 124.81 Q 363.00 127.52 362.20 131.92 A 2.82 2.79 -53.7 0 0 362.47 133.74 Q 363.76 136.22 365.06 138.86 Q 366.61 142.01 368.19 143.61 Q 370.42 145.86 373.21 147.31 Q 376.41 148.97 380.95 148.84 Q 384.98 148.72 388.95 148.02 A 1.62 1.54 -70.5 0 0 389.79 147.59 Q 393.76 143.71 398.57 140.99 A 0.80 0.78 73.9 0 0 398.97 140.25 Q 398.54 132.87 401.19 128.44 Q 402.90 125.57 408.61 120.82 A 1.12 1.10 -59.6 0 1 409.49 120.58 Q 427.79 123.50 442.11 112.06 A 0.44 0.44 -35.1 0 1 442.76 112.17 Q 447.81 120.08 454.06 124.44 Q 456.99 126.48 458.18 127.86 A 1.27 1.14 -66.4 0 1 458.47 128.74 Q 458.08 136.38 458.36 144.02 Q 458.51 147.84 457.64 149.85 Q 456.43 152.64 453.94 154.69 Q 451.80 156.44 451.94 159.25 Q 452.16 164.01 451.79 168.75 Z"/>
<path fill="rgb(16,24,18)" fill-opacity="1.000" d="M 308.99 72.66 Q 309.80 65.96 308.00 59.49 A 0.79 0.77 82.0 0 1 308.73 58.49 L 318.60 58.51 A 0.45 0.44 -85.0 0 1 319.03 59.04 Q 318.47 62.53 318.95 65.86 Q 319.41 69.08 319.42 69.16 Q 320.10 75.72 320.84 82.27 Q 322.31 95.26 326.21 108.76 Q 326.76 110.66 325.31 112.01 Q 323.97 113.27 321.29 114.35 Q 315.60 116.64 309.44 118.60 A 0.58 0.57 -17.3 0 1 308.72 118.23 Q 304.26 103.88 294.80 93.94 A 0.85 0.85 50.1 0 1 294.91 92.67 Q 297.30 90.92 299.51 89.25 Q 307.75 83.00 308.99 72.66 Z"/>
<path fill="rgb(16,24,18)" fill-opacity="1.000" d="M 159.47 73.00 Q 154.37 73.07 149.19 73.98 A 1.78 1.77 -17.7 0 1 147.28 73.00 Q 144.48 67.20 142.90 61.48 A 0.97 0.97 75.6 0 1 143.61 60.28 Q 149.05 59.02 154.50 58.82 Q 168.00 58.33 181.88 58.50 A 0.64 0.64 -5.0 0 1 182.50 59.02 Q 184.23 67.61 190.00 73.86 A 1.00 0.99 -34.4 0 1 189.70 75.43 Q 182.66 78.87 174.82 78.94 A 1.28 1.19 65.6 0 1 173.96 78.58 Q 170.98 75.67 167.23 74.17 Q 164.10 72.93 159.47 73.00 Z"/>
<path fill="rgb(16,24,18)" fill-opacity="1.000" d="M 229.53 67.69 A 0.72 0.72 -83.4 0 1 228.83 68.25 Q 217.36 68.35 206.71 72.42 A 1.09 1.08 -33.3 0 1 205.58 72.19 Q 200.02 66.85 196.42 59.66 A 0.80 0.80 -13.2 0 1 197.14 58.50 L 228.75 58.50 A 1.24 1.24 87.2 0 1 229.98 59.62 Q 230.42 64.04 229.53 67.69 Z"/>
<path fill="rgb(16,24,18)" fill-opacity="1.000" d="M 242.72 68.53 A 0.55 0.51 -78.7 0 1 242.36 67.94 L 243.53 59.10 A 0.69 0.65 -86.0 0 1 244.18 58.50 L 289.43 58.56 A 1.48 1.28 -21.8 0 1 290.33 58.87 Q 292.20 60.44 293.56 63.44 Q 295.69 68.09 294.63 72.31 Q 293.70 76.04 289.98 79.23 Q 284.80 83.69 277.25 84.75 Q 271.69 85.53 268.68 85.56 A 1.01 0.95 69.9 0 1 267.88 85.16 Q 258.42 73.11 242.72 68.53 Z"/>
<path fill="rgb(100,137,141)" fill-opacity="1.000" d="M 432.32 64.12 L 433.87 67.77 A 0.64 0.54 -26.6 0 1 433.56 68.50 Q 423.97 73.84 412.73 71.95 Q 411.86 71.81 412.55 71.25 Q 421.09 64.37 431.56 63.72 A 0.81 0.67 -11.9 0 1 432.32 64.12 Z"/>
<path fill="rgb(16,24,18)" fill-opacity="1.000" d="M 128.04 114.00 Q 121.55 100.28 109.04 91.75 L 104.75 89.21 L 102.21 87.50 Q 102.96 84.42 102.72 80.77 Q 102.59 78.85 104.18 77.78 Q 114.44 70.84 125.40 66.28 A 0.53 0.52 72.2 0 1 126.11 66.65 Q 130.78 87.20 144.35 102.44 A 0.65 0.63 41.4 0 1 144.41 103.23 Q 139.67 110.42 131.27 112.81 Q 129.60 113.28 128.04 114.00 Z"/>
<path fill="rgb(100,137,141)" fill-opacity="1.000" d="M 440.31 78.70 L 435.84 74.11 A 0.49 0.48 47.8 0 1 435.87 73.41 Q 438.28 71.35 440.05 74.01 Q 440.29 74.37 440.76 74.65 Q 442.43 75.64 441.41 78.47 A 0.67 0.66 33.0 0 1 440.31 78.70 Z"/>
<path fill="rgb(115,151,159)" fill-opacity="1.000" d="M 425.95 77.70 Q 428.04 75.78 430.13 73.85 A 0.55 0.54 -45.0 0 1 430.88 73.84 L 440.40 82.90 A 0.65 0.65 -53.7 0 1 440.52 83.70 Q 439.65 85.24 437.06 87.81 Q 418.95 105.83 401.03 124.03 Q 397.85 127.27 397.17 131.78 Q 396.76 134.52 396.09 138.09 A 0.80 0.80 -84.5 0 1 395.29 138.75 Q 391.04 138.72 386.98 137.59 Q 377.64 135.00 375.75 126.00 Q 374.88 121.84 375.45 115.75 A 0.50 0.49 5.8 0 1 376.00 115.31 Q 384.29 116.17 390.06 110.81 Q 407.97 94.22 425.95 77.70 Z"/>
<path fill="rgb(100,137,141)" fill-opacity="1.000" d="M 407.21 76.61 A 1.32 1.32 28.2 0 1 408.54 76.21 Q 414.50 77.77 420.25 77.50 Q 421.66 77.43 420.50 78.50 L 399.68 97.70 Q 399.07 98.25 399.06 97.43 Q 398.88 85.89 407.21 76.61 Z"/>
<path fill="rgb(100,137,141)" fill-opacity="1.000" d="M 445.71 81.57 A 0.91 0.82 22.8 0 1 446.84 81.18 L 451.21 82.92 A 0.69 0.59 14.7 0 1 451.65 83.55 Q 450.88 93.36 444.98 101.13 Q 444.35 101.96 444.07 100.95 Q 441.35 91.33 445.71 81.57 Z"/>
<path fill="rgb(16,24,18)" fill-opacity="1.000" d="M 226.43 98.04 Q 231.84 96.99 234.69 91.69 Q 236.91 87.56 235.68 82.30 A 0.46 0.43 80.6 0 1 236.05 81.75 Q 242.09 81.07 246.81 85.44 Q 249.30 87.74 249.76 90.66 Q 249.86 91.31 249.82 96.35 Q 249.77 101.86 248.32 107.20 A 0.53 0.52 -76.2 0 1 247.70 107.58 Q 244.02 106.81 243.00 106.75 Q 221.19 105.49 202.53 116.39 A 1.21 1.21 -37.0 0 1 201.07 116.19 Q 185.55 100.59 164.57 97.23 Q 162.30 96.87 161.02 95.61 Q 159.34 93.96 158.38 91.96 Q 156.98 89.05 159.98 90.24 Q 173.01 95.41 186.69 94.49 Q 192.78 94.08 199.07 91.89 Q 205.08 89.80 210.75 86.80 A 0.37 0.36 70.4 0 1 211.28 87.06 Q 212.56 93.14 217.14 96.18 Q 221.42 99.02 226.43 98.04 Z"/>
<path fill="rgb(95,155,144)" fill-opacity="1.000" d="M 102.21 87.50 L 104.75 89.21 Q 104.41 92.23 101.75 91.85 A 1.56 1.16 27.5 0 0 100.82 92.00 Q 96.48 94.58 92.82 98.07 Q 89.08 101.65 84.91 104.70 A 1.43 1.19 81.4 0 0 84.43 105.49 Q 84.24 106.33 83.71 107.00 Q 83.50 106.97 83.46 106.75 Q 84.18 102.56 87.56 100.06 Q 88.14 99.64 88.94 98.41 Q 89.54 97.49 90.38 96.91 Q 92.42 95.49 94.26 93.81 Q 94.95 93.18 97.22 91.88 Q 99.05 90.85 99.89 88.78 A 1.25 0.59 -75.8 0 1 100.49 88.05 L 102.21 87.50 Z"/>
<path fill="rgb(115,151,159)" fill-opacity="1.000" d="M 478.79 126.00 Q 478.73 135.20 478.74 144.39 Q 478.75 148.48 480.02 150.87 Q 481.75 154.13 485.00 156.77 A 1.50 1.50 -48.5 0 1 485.13 158.98 Q 481.67 162.53 477.89 164.68 Q 473.69 167.08 469.73 166.94 Q 465.26 166.78 461.38 163.88 Q 458.25 161.54 455.13 158.23 A 0.54 0.53 -44.6 0 1 455.14 157.49 Q 457.93 154.62 459.50 151.11 Q 460.74 148.33 460.87 143.68 Q 461.16 132.59 460.96 121.50 L 461.25 89.43 A 0.69 0.68 -0.0 0 1 461.94 88.75 L 477.38 88.80 A 1.19 1.15 89.7 0 1 478.53 89.98 L 478.79 126.00 Z"/>
<path fill="rgb(57,154,170)" fill-opacity="1.000" d="M 104.75 89.21 L 109.04 91.75 Q 103.13 98.99 94.53 102.62 Q 94.28 102.73 93.75 103.21 L 90.18 106.47 Q 89.80 106.81 89.55 107.21 L 87.46 110.50 L 83.71 107.00 Q 84.24 106.33 84.43 105.49 A 1.43 1.19 81.4 0 1 84.91 104.70 Q 89.08 101.65 92.82 98.07 Q 96.48 94.58 100.82 92.00 A 1.56 1.16 27.5 0 1 101.75 91.85 Q 104.41 92.23 104.75 89.21 Z"/>
<path fill="rgb(18,156,197)" fill-opacity="1.000" d="M 109.04 91.75 Q 121.55 100.28 128.04 114.00 Q 127.48 114.51 128.06 114.94 Q 130.59 121.11 131.27 127.75 Q 131.30 128.07 131.75 128.04 L 129.59 131.63 A 1.72 1.28 -44.1 0 0 129.38 132.91 Q 135.01 149.33 147.82 160.31 Q 150.22 162.37 150.76 162.55 Q 152.61 163.18 154.85 161.05 A 1.74 1.74 -29.3 0 0 155.33 159.35 Q 154.52 156.37 154.23 153.01 Q 153.91 149.45 154.60 146.65 Q 156.53 138.79 163.81 135.56 Q 171.12 132.33 177.69 135.31 Q 185.77 138.99 187.45 146.77 Q 189.00 154.01 185.12 160.20 Q 181.05 166.68 172.44 167.82 Q 169.24 168.24 168.60 168.45 Q 164.97 169.68 167.09 172.74 Q 168.08 174.17 170.43 175.69 Q 183.66 184.23 199.50 186.04 Q 200.13 187.82 202.02 187.59 A 1.72 1.22 -27.3 0 1 202.94 187.72 Q 209.37 191.01 215.30 196.10 A 2.93 2.92 14.7 0 1 216.25 197.72 Q 216.77 200.16 217.71 200.25 Q 217.68 203.50 220.69 205.81 Q 231.40 214.04 244.79 227.00 Q 242.55 230.11 239.46 232.30 Q 237.77 233.49 236.79 234.50 Q 235.58 235.75 234.36 237.00 Q 233.83 237.54 231.17 239.41 Q 229.46 240.61 228.47 242.55 A 1.34 1.16 -83.3 0 1 227.78 243.18 L 224.79 244.25 Q 216.67 228.87 201.50 219.75 Q 195.59 216.20 189.25 215.21 Q 188.85 213.31 187.56 212.94 Q 179.15 210.50 173.19 208.06 Q 172.50 207.78 172.04 208.00 Q 172.53 206.89 172.32 205.79 A 0.76 0.68 -1.2 0 0 171.69 205.25 Q 150.30 202.74 134.44 188.31 Q 134.27 188.16 133.50 187.96 Q 128.08 181.37 123.79 174.00 Q 123.25 172.50 122.24 171.27 Q 118.60 166.86 116.44 161.56 Q 114.13 155.92 112.01 150.21 Q 107.74 138.71 101.69 128.06 Q 97.29 120.33 87.46 110.50 L 89.55 107.21 Q 89.80 106.81 90.18 106.47 L 93.75 103.21 Q 94.28 102.73 94.53 102.62 Q 103.13 98.99 109.04 91.75 Z"/>
<path fill="rgb(101,136,142)" fill-opacity="1.000" d="M 416.08 115.06 Q 415.27 113.66 416.38 112.63 Q 426.74 102.98 436.15 92.61 Q 436.78 91.91 436.99 92.85 L 439.81 105.70 A 0.94 0.84 63.6 0 1 439.58 106.54 Q 430.31 115.43 416.86 115.50 A 0.91 0.89 -15.0 0 1 416.08 115.06 Z"/>
<path fill="rgb(16,24,18)" fill-opacity="1.000" d="M 83.46 106.75 Q 83.50 106.97 83.71 107.00 L 87.46 110.50 Q 97.29 120.33 101.69 128.06 Q 107.74 138.71 112.01 150.21 Q 114.13 155.92 116.44 161.56 Q 118.60 166.86 122.24 171.27 Q 123.25 172.50 123.79 174.00 Q 122.97 180.64 119.72 186.46 Q 118.39 188.85 116.00 190.57 A 1.22 1.21 -24.8 0 1 114.11 189.88 Q 112.31 182.59 110.66 175.46 Q 109.14 168.91 106.45 162.74 Q 102.69 154.12 95.44 150.06 Q 91.28 147.74 86.77 148.66 Q 82.63 149.51 79.50 152.66 Q 74.28 157.92 76.60 165.98 A 1.94 1.94 -27.8 0 1 75.97 168.01 Q 69.41 173.46 62.31 175.42 Q 60.25 175.98 60.25 173.85 Q 60.25 166.02 60.25 158.44 Q 60.25 148.20 60.92 143.07 Q 63.27 125.07 72.86 109.34 Q 74.31 106.97 77.09 103.96 A 1.29 1.29 37.6 0 1 78.73 103.75 L 83.46 106.75 Z"/>
<path fill="rgb(16,24,18)" fill-opacity="1.000" d="M 264.32 110.78 Q 267.56 106.89 272.77 105.87 Q 282.05 104.05 288.30 108.86 Q 293.45 112.81 295.63 121.25 Q 299.86 137.62 288.84 152.21 A 1.21 1.20 30.7 0 1 287.38 152.58 Q 283.19 150.65 283.10 146.07 Q 283.02 142.00 283.01 141.92 Q 280.49 123.49 264.66 113.09 A 1.57 1.56 -53.5 0 1 264.32 110.78 Z"/>
<path fill="rgb(16,24,18)" fill-opacity="1.000" d="M 199.50 186.04 Q 183.66 184.23 170.43 175.69 Q 168.08 174.17 167.09 172.74 Q 164.97 169.68 168.60 168.45 Q 169.24 168.24 172.44 167.82 Q 181.05 166.68 185.12 160.20 Q 189.00 154.01 187.45 146.77 Q 185.77 138.99 177.69 135.31 Q 171.12 132.33 163.81 135.56 Q 156.53 138.79 154.60 146.65 Q 153.91 149.45 154.23 153.01 Q 154.52 156.37 155.33 159.35 A 1.74 1.74 -29.3 0 1 154.85 161.05 Q 152.61 163.18 150.76 162.55 Q 150.22 162.37 147.82 160.31 Q 135.01 149.33 129.38 132.91 A 1.72 1.28 -44.1 0 1 129.59 131.63 L 131.75 128.04 Q 132.40 127.08 134.25 127.00 Q 149.54 126.31 156.83 112.51 A 0.85 0.81 -75.4 0 1 157.56 112.06 Q 172.39 112.01 183.69 120.31 Q 198.58 131.26 200.25 150.50 Q 200.47 153.02 201.76 158.21 Q 202.97 163.05 204.28 165.61 Q 207.32 171.53 213.09 175.25 A 1.26 1.26 -62.4 0 1 213.57 176.80 Q 211.63 181.34 208.08 184.58 Q 206.50 186.01 204.31 186.15 Q 201.92 186.30 199.50 186.04 Z"/>
<path fill="rgb(16,24,18)" fill-opacity="1.000" d="M 248.27 147.59 Q 260.22 146.23 261.87 131.95 Q 261.96 131.18 262.55 131.68 Q 263.66 132.61 264.22 133.90 Q 266.86 139.98 267.01 146.57 Q 267.09 150.35 267.08 150.42 Q 266.82 152.31 265.04 153.37 Q 263.94 154.03 263.88 154.07 Q 245.03 166.75 221.50 161.50 Q 218.43 160.82 218.67 158.06 Q 218.76 157.01 218.76 156.92 Q 218.97 146.05 215.45 135.61 A 1.94 1.93 -39.4 0 1 215.61 134.02 Q 220.42 125.54 227.52 119.80 Q 230.34 117.52 232.62 117.49 Q 235.45 117.45 238.31 119.55 A 0.54 0.53 43.4 0 1 238.34 120.39 Q 233.41 124.54 232.25 129.89 Q 231.08 135.31 233.82 140.29 Q 235.99 144.23 240.11 146.27 Q 243.80 148.10 248.27 147.59 Z"/>
<path fill="rgb(100,137,141)" fill-opacity="1.000" d="M 391.48 141.24 Q 392.04 141.27 391.66 141.67 Q 390.18 143.26 388.67 144.15 Q 387.40 144.90 385.04 145.12 Q 382.61 145.35 380.17 145.55 Q 377.49 145.78 375.50 144.81 Q 373.06 143.63 371.02 141.86 Q 369.22 140.31 367.84 137.49 Q 366.74 135.24 365.70 132.95 A 1.85 1.77 -54.6 0 1 365.56 132.00 Q 366.27 126.23 367.25 124.00 Q 368.31 121.59 371.33 120.12 A 0.46 0.46 -14.1 0 1 371.99 120.51 Q 372.25 126.30 374.32 131.44 Q 375.52 134.44 378.05 136.45 Q 383.52 140.81 391.48 141.24 Z"/>
<path fill="rgb(101,136,142)" fill-opacity="1.000" d="M 498.71 123.50 Q 498.78 136.07 498.75 148.64 Q 498.75 148.71 498.91 150.36 Q 499.09 152.15 497.72 153.34 Q 496.56 154.33 496.50 154.39 Q 492.91 158.12 489.25 161.79 Q 488.19 161.91 488.69 161.19 Q 490.16 159.06 488.94 157.56 Q 486.13 154.12 483.57 150.50 Q 482.29 148.69 482.10 146.49 Q 481.49 139.50 481.79 131.65 A 0.85 0.84 -8.6 0 1 482.36 130.88 Q 486.12 129.61 489.52 128.57 Q 493.80 127.27 496.91 124.11 A 1.60 1.49 15.4 0 1 497.75 123.67 L 498.71 123.50 Z"/>
<path fill="rgb(16,24,18)" fill-opacity="1.000" d="M 314.92 131.75 A 2.22 2.21 79.6 0 1 316.22 129.86 Q 324.00 126.31 332.44 127.72 A 1.13 1.09 79.3 0 1 333.19 128.25 Q 338.50 137.27 345.58 145.78 A 0.61 0.61 48.6 0 1 345.53 146.61 L 326.12 164.97 A 2.85 2.83 27.9 0 1 323.71 165.70 Q 317.12 164.59 310.94 168.44 Q 309.42 169.39 307.72 168.82 Q 303.77 167.50 301.50 163.68 A 0.77 0.74 -42.8 0 1 301.55 162.85 Q 304.93 158.40 307.88 153.65 Q 314.20 143.47 314.92 131.75 Z"/>
<path fill="rgb(100,137,141)" fill-opacity="1.000" d="M 455.11 164.35 A 0.91 0.91 -64.2 0 1 456.59 163.83 Q 470.36 175.63 483.89 164.43 Q 484.96 163.54 485.14 164.92 Q 485.90 170.73 482.82 173.84 Q 480.37 176.30 475.39 177.50 Q 470.12 178.77 464.19 176.81 Q 461.66 175.98 460.37 174.59 Q 459.49 173.64 459.44 173.60 Q 457.92 172.17 456.48 170.67 Q 455.20 169.34 455.01 167.77 Q 454.79 165.97 455.11 164.35 Z"/>
<path fill="rgb(16,24,18)" fill-opacity="1.000" d="M 253.45 179.01 A 1.25 1.24 -89.7 0 1 254.44 180.02 Q 256.01 188.68 262.45 192.36 Q 267.01 194.97 272.42 194.04 Q 278.26 193.04 281.67 188.40 Q 285.17 183.65 284.73 177.99 Q 284.27 172.16 279.41 167.55 A 1.19 1.19 -33.0 0 1 279.83 165.57 Q 283.28 164.33 286.24 165.60 A 0.75 0.67 -77.2 0 1 286.64 166.32 Q 285.82 177.29 294.81 181.94 Q 299.44 184.33 305.28 182.26 Q 305.94 182.03 306.38 182.08 Q 307.77 182.24 306.21 183.70 Q 290.15 198.79 274.54 214.33 A 0.47 0.46 -43.8 0 1 273.86 214.32 Q 261.85 201.24 246.19 193.62 Q 244.35 192.73 244.07 190.70 Q 243.34 185.63 243.99 180.56 A 0.91 0.88 82.4 0 1 244.51 179.86 Q 248.61 178.09 253.45 179.01 Z"/>
<path fill="rgb(16,24,18)" fill-opacity="1.000" d="M 115.87 215.71 A 0.90 0.89 33.2 0 1 116.08 216.68 Q 115.27 218.80 112.90 220.22 Q 104.53 225.22 96.21 222.39 Q 90.82 220.55 88.15 216.37 Q 85.25 211.83 86.07 205.76 Q 86.71 201.04 88.03 196.49 Q 90.13 189.21 90.38 187.37 Q 91.50 179.04 89.38 170.74 A 1.05 0.96 58.9 0 1 89.56 169.85 Q 90.92 168.18 92.97 167.46 A 0.75 0.70 60.0 0 1 93.76 167.70 Q 97.92 172.78 100.00 181.25 Q 101.60 187.76 103.15 194.27 Q 105.95 206.06 115.87 215.71 Z"/>
<path fill="rgb(16,24,18)" fill-opacity="1.000" d="M 345.45 196.92 L 371.47 171.47 A 1.24 1.22 40.4 0 1 373.05 171.36 Q 384.07 179.19 396.25 183.00 Q 400.02 184.18 408.71 187.50 A 0.35 0.34 31.2 0 1 408.85 188.05 Q 404.45 192.96 404.38 199.02 Q 404.32 203.89 407.57 208.31 Q 410.46 212.25 414.96 215.35 A 2.27 2.22 -79.9 0 1 415.88 216.70 Q 418.94 230.35 414.12 242.72 A 0.88 0.80 -81.7 0 1 413.45 243.27 Q 411.24 243.56 409.46 242.25 A 0.92 0.84 -70.0 0 1 409.12 241.43 Q 410.64 226.49 403.18 213.56 Q 393.38 196.57 373.50 194.25 Q 364.36 193.18 356.26 196.56 Q 356.20 196.58 354.29 197.52 Q 350.21 199.53 345.70 197.98 A 0.64 0.63 32.2 0 1 345.45 196.92 Z"/>
<path fill="rgb(16,24,18)" fill-opacity="1.000" d="M 92.21 232.42 A 1.38 1.27 -87.7 0 1 92.89 233.22 L 96.62 244.77 A 1.21 1.07 -41.6 0 1 96.51 245.69 Q 94.36 249.45 89.91 252.41 A 1.04 1.03 52.1 0 1 88.57 252.24 Q 78.25 240.77 64.00 236.52 Q 61.67 235.82 60.76 233.87 Q 60.25 232.77 60.25 230.04 Q 60.25 211.15 60.25 192.42 A 2.33 2.32 -12.2 0 1 61.62 190.30 Q 70.44 186.34 75.47 181.49 Q 77.85 179.19 78.04 182.49 Q 78.78 195.44 75.29 205.87 A 4.44 4.40 -7.8 0 1 73.52 208.18 Q 65.08 213.76 66.08 221.38 Q 66.98 228.16 72.72 231.17 Q 78.45 234.18 86.29 230.41 A 2.09 1.61 -40.4 0 1 87.94 230.33 L 92.21 232.42 Z"/>
<path fill="rgb(16,24,18)" fill-opacity="1.000" d="M 133.50 187.96 Q 134.27 188.16 134.44 188.31 Q 150.30 202.74 171.69 205.25 A 0.76 0.68 -1.2 0 1 172.32 205.79 Q 172.53 206.89 172.04 208.00 Q 171.00 210.07 168.44 211.19 Q 157.67 215.89 153.83 226.45 Q 152.07 231.29 152.42 236.23 Q 152.78 241.28 154.95 246.02 Q 156.60 249.60 153.09 251.13 Q 132.60 260.10 109.99 254.22 A 1.10 1.09 -69.1 0 1 109.29 252.65 Q 112.29 246.91 117.67 244.62 A 1.87 1.84 52.5 0 1 119.55 244.88 Q 128.77 252.21 136.52 247.11 Q 139.89 244.88 141.38 241.42 Q 143.00 237.63 141.94 233.56 Q 141.04 230.10 138.56 227.56 Q 135.92 224.85 132.28 224.09 A 0.97 0.96 5.9 0 1 131.51 223.15 Q 131.46 211.18 126.50 202.67 A 1.14 1.13 -51.7 0 1 126.40 201.76 Q 128.73 194.23 133.50 187.96 Z"/>
<path fill="rgb(16,24,18)" fill-opacity="1.000" d="M 441.84 256.44 Q 435.57 251.98 430.83 245.67 A 2.39 2.36 31.9 0 1 430.39 243.83 Q 431.45 238.06 431.70 232.49 Q 432.00 225.77 431.62 221.50 Q 431.08 215.39 428.69 210.81 Q 426.40 206.43 424.09 202.07 Q 422.80 199.61 423.13 197.68 Q 423.80 193.75 427.70 191.68 Q 428.56 191.22 429.54 191.23 L 450.99 191.51 A 0.76 0.75 0.8 0 1 451.74 192.27 L 451.50 259.98 A 0.37 0.36 -84.8 0 1 451.07 260.34 Q 445.96 259.37 441.84 256.44 Z"/>
<path fill="rgb(16,24,18)" fill-opacity="1.000" d="M 249.04 231.00 L 244.79 227.00 Q 231.40 214.04 220.69 205.81 Q 217.68 203.50 217.71 200.25 Q 219.41 198.52 222.25 198.75 Q 226.78 199.11 230.15 200.48 Q 249.50 208.39 262.66 223.98 A 0.96 0.96 48.2 0 1 262.59 225.29 L 253.13 234.24 A 0.60 0.57 45.0 0 1 252.33 234.22 L 249.04 231.00 Z"/>
<path fill="rgb(16,24,18)" fill-opacity="1.000" d="M 317.92 254.16 Q 314.29 251.18 312.50 246.54 Q 310.35 240.98 310.51 234.44 Q 310.57 232.19 312.21 230.66 L 337.88 206.59 A 0.61 0.61 -48.6 0 1 338.66 206.54 Q 343.23 209.83 344.06 215.21 Q 344.35 217.08 343.33 219.61 Q 336.69 236.04 346.72 250.85 A 0.65 0.65 -42.1 0 1 346.68 251.64 Q 341.29 257.97 332.75 258.29 Q 328.74 258.44 324.91 257.50 Q 320.75 256.48 317.92 254.16 Z"/>
<path fill="rgb(16,24,18)" fill-opacity="1.000" d="M 360.69 214.44 Q 366.22 208.29 374.72 208.48 Q 376.42 208.52 377.36 209.41 Q 378.97 210.93 376.92 212.36 Q 375.09 213.63 375.06 213.66 Q 367.66 220.10 371.31 229.19 Q 372.77 232.81 376.32 234.86 Q 379.55 236.73 383.32 236.75 Q 388.79 236.77 392.96 232.67 A 0.75 0.67 -53.3 0 1 393.77 232.50 Q 395.20 233.22 394.50 234.75 Q 388.85 247.12 376.61 247.39 Q 369.33 247.55 364.09 243.75 Q 358.42 239.64 356.54 232.04 Q 354.03 221.85 360.69 214.44 Z"/>
<path fill="rgb(16,24,18)" fill-opacity="1.000" d="M 189.25 215.21 Q 195.59 216.20 201.50 219.75 Q 216.67 228.87 224.79 244.25 L 227.00 248.29 L 228.96 253.38 Q 229.69 255.29 228.29 256.56 L 218.81 265.15 A 0.67 0.63 61.9 0 1 217.76 264.80 Q 214.39 252.60 205.19 244.06 Q 199.52 238.80 190.49 237.88 Q 180.24 236.83 171.16 240.50 A 1.22 1.22 76.8 0 1 169.49 239.46 Q 168.36 224.94 179.94 217.69 Q 184.70 214.70 189.25 215.21 Z"/>
<path fill="rgb(95,155,144)" fill-opacity="1.000" d="M 244.79 227.00 L 249.04 231.00 Q 247.85 232.40 246.07 232.55 A 1.58 1.16 14.9 0 0 245.20 232.89 Q 235.59 241.59 230.44 245.94 Q 229.43 246.79 227.00 248.29 L 224.79 244.25 L 227.78 243.18 A 1.34 1.16 -83.3 0 0 228.47 242.55 Q 229.46 240.61 231.17 239.41 Q 233.83 237.54 234.36 237.00 Q 235.58 235.75 236.79 234.50 Q 237.77 233.49 239.46 232.30 Q 242.55 230.11 244.79 227.00 Z"/>
<path fill="rgb(16,24,18)" fill-opacity="1.000" d="M 323.75 295.79 Q 301.80 288.32 290.71 268.00 L 288.79 264.75 Q 288.70 264.13 288.25 263.71 L 286.54 259.75 Q 284.94 256.86 286.26 254.70 Q 286.52 254.27 289.43 251.48 Q 292.12 248.89 295.01 246.49 Q 296.95 244.88 297.58 247.33 Q 300.33 257.97 308.56 265.69 Q 313.10 269.94 317.04 271.40 Q 327.36 275.21 337.95 272.09 Q 341.00 271.19 343.90 270.36 A 1.26 1.25 -9.9 0 1 345.50 271.48 Q 346.51 286.67 333.69 294.19 Q 329.85 296.44 323.75 295.79 Z"/>
<path fill="rgb(16,24,18)" fill-opacity="1.000" d="M 74.37 255.62 Q 79.32 259.67 83.83 265.03 A 2.82 2.80 30.0 0 1 84.45 267.31 Q 83.57 272.38 82.99 277.81 Q 81.26 294.08 90.67 308.62 A 3.37 3.35 -53.7 0 1 91.08 311.35 Q 90.43 313.69 88.64 316.15 Q 86.47 319.11 82.77 318.63 Q 71.81 317.20 60.96 317.00 A 0.72 0.72 0.4 0 1 60.25 316.28 L 60.25 252.39 Q 60.25 250.40 62.22 250.65 Q 69.39 251.56 74.37 255.62 Z"/>
<path fill="rgb(16,24,18)" fill-opacity="1.000" d="M 198.36 258.25 Q 201.67 261.73 203.06 266.94 Q 204.84 273.56 204.01 279.43 A 1.59 1.54 71.4 0 1 203.60 280.29 Q 191.21 292.95 178.10 304.66 A 1.29 1.28 -48.4 0 1 176.51 304.76 Q 171.51 301.29 170.72 296.55 Q 170.40 294.65 171.08 292.86 Q 177.73 275.14 168.14 260.10 A 1.02 1.01 51.1 0 1 168.27 258.85 Q 174.45 252.48 183.75 252.67 Q 187.88 252.75 191.67 254.08 Q 195.74 255.51 198.36 258.25 Z"/>
<path fill="rgb(16,24,18)" fill-opacity="1.000" d="M 381.00 323.29 Q 366.18 309.29 345.99 306.35 Q 345.91 306.34 344.49 306.28 Q 342.67 306.21 342.21 304.50 Q 342.97 301.40 345.06 300.56 Q 357.39 295.61 361.25 283.75 Q 364.19 274.73 360.10 265.79 Q 359.12 263.63 359.48 262.43 Q 360.02 260.61 362.19 259.69 Q 379.28 252.41 397.78 255.04 Q 401.61 255.59 405.20 257.07 A 0.85 0.85 23.7 0 1 405.65 258.22 Q 402.80 264.18 396.97 266.48 A 1.91 1.89 -33.0 0 1 394.94 266.06 Q 391.50 262.64 387.39 261.87 Q 383.51 261.15 379.37 263.22 Q 371.88 266.97 372.73 275.54 Q 373.18 280.03 375.73 282.84 Q 378.43 285.82 382.90 287.11 A 0.81 0.80 -79.6 0 1 383.48 287.96 Q 382.64 298.50 387.88 307.54 A 2.57 2.57 -51.5 0 1 388.11 309.56 Q 385.64 317.71 381.00 323.29 Z"/>
<path fill="rgb(16,24,18)" fill-opacity="1.000" d="M 439.27 326.53 Q 439.24 326.59 439.19 326.63 A 0.18 0.18 46.3 0 1 438.97 326.62 Q 436.53 324.76 436.75 320.75 Q 437.23 312.25 440.00 304.01 A 1.83 1.81 87.9 0 1 441.01 302.91 Q 447.35 300.12 448.75 293.25 Q 449.77 288.24 446.97 284.19 Q 444.41 280.48 440.13 278.98 Q 434.43 276.98 428.67 280.72 A 1.12 0.75 -43.8 0 1 427.76 280.88 L 422.61 278.59 A 1.32 0.93 85.8 0 1 422.00 277.85 L 418.08 266.44 A 1.71 1.56 59.5 0 1 418.44 264.74 L 424.85 258.37 A 0.54 0.49 46.2 0 1 425.59 258.42 Q 436.12 269.81 450.86 274.79 A 1.31 1.31 -80.7 0 1 451.75 276.03 L 451.75 319.08 A 1.54 1.53 81.2 0 1 450.68 320.55 Q 443.92 322.69 439.49 326.17 Q 439.44 326.21 439.27 326.53 Z"/>
<path fill="rgb(95,155,144)" fill-opacity="1.000" d="M 286.54 259.75 L 288.25 263.71 Q 286.29 264.52 284.74 265.86 Q 282.94 267.42 281.51 268.27 Q 279.55 269.42 277.88 270.96 Q 275.06 273.56 274.56 273.96 Q 270.28 277.42 266.17 281.07 Q 265.61 281.57 264.24 283.30 Q 263.31 284.47 262.00 285.29 L 259.50 282.54 Q 262.90 279.70 266.52 277.14 Q 267.66 276.33 270.79 273.62 Q 272.56 272.09 275.25 270.25 Q 278.13 268.28 283.84 262.54 A 1.17 0.94 69.2 0 0 284.12 261.69 Q 284.01 260.19 285.55 260.41 A 0.83 0.53 14.5 0 0 286.31 260.16 L 286.54 259.75 Z"/>
<path fill="rgb(16,24,18)" fill-opacity="1.000" d="M 120.92 278.55 Q 119.63 277.77 120.37 276.19 Q 126.39 263.47 138.62 263.64 Q 146.79 263.75 152.36 268.63 Q 158.33 273.85 159.06 283.00 Q 159.41 287.34 157.58 291.25 Q 152.01 303.12 138.75 302.53 A 1.41 1.28 -19.1 0 1 137.88 302.16 Q 135.78 300.07 138.08 298.42 Q 140.21 296.91 140.27 296.85 Q 145.25 292.14 144.48 285.98 Q 143.80 280.58 139.22 276.89 Q 131.33 270.54 121.60 278.51 A 0.60 0.58 40.9 0 1 120.92 278.55 Z"/>
<path fill="rgb(74,154,158)" fill-opacity="1.000" d="M 288.25 263.71 Q 288.70 264.13 288.79 264.75 Q 286.51 266.51 284.67 268.68 Q 282.43 271.31 280.71 272.68 Q 271.88 279.71 264.21 288.00 L 262.00 285.29 Q 263.31 284.47 264.24 283.30 Q 265.61 281.57 266.17 281.07 Q 270.28 277.42 274.56 273.96 Q 275.06 273.56 277.88 270.96 Q 279.55 269.42 281.51 268.27 Q 282.94 267.42 284.74 265.86 Q 286.29 264.52 288.25 263.71 Z"/>
<path fill="rgb(57,154,170)" fill-opacity="1.000" d="M 288.79 264.75 L 290.71 268.00 Q 290.12 268.02 289.69 268.69 Q 287.25 272.46 283.55 275.47 Q 277.47 280.43 277.37 280.52 Q 273.33 284.19 269.18 287.74 Q 268.92 287.97 268.70 288.55 L 267.46 291.75 L 264.21 288.00 Q 271.88 279.71 280.71 272.68 Q 282.43 271.31 284.67 268.68 Q 286.51 266.51 288.79 264.75 Z"/>
<path fill="rgb(16,24,18)" fill-opacity="1.000" d="M 105.36 324.21 A 0.21 0.21 17.0 0 1 105.22 323.95 Q 108.88 312.32 102.78 302.25 Q 102.04 301.03 100.19 299.22 Q 98.28 297.35 97.81 295.94 Q 93.28 282.22 99.45 269.19 Q 100.97 266.01 104.13 267.12 A 1.34 1.33 -78.9 0 1 105.02 268.45 Q 104.09 285.67 114.09 297.31 Q 120.86 305.19 130.32 308.60 Q 142.09 312.85 155.73 308.97 A 3.16 3.15 -41.3 0 1 157.84 309.10 Q 162.88 311.20 165.32 315.00 A 1.63 1.61 51.9 0 1 165.09 317.06 L 141.61 339.41 A 0.67 0.65 37.4 0 1 140.82 339.50 Q 124.11 329.93 105.36 324.21 Z"/>
<path fill="rgb(18,156,197)" fill-opacity="1.000" d="M 290.71 268.00 Q 301.80 288.32 323.75 295.79 Q 323.43 296.46 324.10 296.67 Q 324.70 296.86 324.85 296.95 Q 331.66 300.79 338.79 303.98 Q 340.41 304.71 342.21 304.50 Q 342.67 306.21 344.49 306.28 Q 345.91 306.34 345.99 306.35 Q 366.18 309.29 381.00 323.29 Q 386.56 327.41 391.46 332.33 A 1.29 0.63 -9.6 0 0 392.31 332.58 Q 393.00 332.58 392.96 333.75 Q 395.65 338.48 400.94 345.81 Q 407.44 354.82 411.14 367.32 Q 413.20 374.28 414.69 381.37 Q 415.23 383.94 416.63 385.82 Q 420.30 390.72 424.75 394.96 Q 420.25 401.36 418.00 403.50 Q 414.14 407.18 404.50 414.04 Q 395.13 408.61 387.21 401.25 Q 388.17 399.64 388.11 397.75 Q 388.04 395.62 386.06 395.90 A 1.34 1.34 -14.5 0 1 384.61 395.05 Q 382.78 390.27 383.25 385.25 Q 383.39 383.80 383.00 383.21 L 385.14 378.24 A 1.43 0.75 59.4 0 0 385.09 377.29 Q 378.91 359.54 363.90 348.30 A 0.97 0.93 53.5 0 0 363.02 348.15 Q 361.00 348.82 359.62 350.43 A 0.99 0.90 59.7 0 0 359.44 351.29 Q 361.26 358.17 360.75 361.50 Q 359.35 370.52 352.63 374.54 Q 346.40 378.27 339.42 376.48 Q 332.08 374.60 328.41 366.67 Q 325.39 360.12 328.00 354.00 Q 332.32 343.87 343.31 343.07 Q 346.16 342.86 347.39 341.89 Q 350.39 339.52 346.06 336.44 Q 332.35 326.68 314.00 324.96 Q 313.56 324.16 312.00 323.25 Q 298.43 315.37 295.44 313.81 Q 294.09 313.11 294.00 312.21 Q 294.50 310.63 293.23 309.52 Q 291.09 307.64 288.47 306.48 Q 276.50 301.18 267.46 291.75 L 268.70 288.55 Q 268.92 287.97 269.18 287.74 Q 273.33 284.19 277.37 280.52 Q 277.47 280.43 283.55 275.47 Q 287.25 272.46 289.69 268.69 Q 290.12 268.02 290.71 268.00 Z"/>
<path fill="rgb(16,24,18)" fill-opacity="1.000" d="M 259.50 282.54 L 262.00 285.29 L 264.21 288.00 L 267.46 291.75 Q 276.50 301.18 288.47 306.48 Q 291.09 307.64 293.23 309.52 Q 294.50 310.63 294.00 312.21 Q 289.86 312.23 286.06 310.91 Q 284.24 310.28 278.82 307.67 Q 263.38 300.21 252.06 287.18 A 1.03 1.02 48.1 0 1 252.13 285.76 Q 253.48 284.50 254.96 283.13 Q 255.05 283.04 256.05 281.91 Q 257.73 280.04 259.50 282.54 Z"/>
<path fill="rgb(16,24,18)" fill-opacity="1.000" d="M 399.62 295.97 Q 396.17 293.14 400.68 289.79 Q 402.76 288.24 405.28 287.64 Q 412.59 285.89 419.10 289.27 Q 423.38 291.49 425.26 294.94 Q 427.36 298.79 426.66 303.68 Q 425.60 311.20 424.51 318.72 Q 423.56 325.36 423.72 329.35 Q 423.94 334.64 425.12 339.96 A 0.31 0.31 -88.9 0 1 424.74 340.33 Q 419.81 338.94 419.13 333.93 Q 418.45 328.94 417.31 324.05 Q 415.68 317.02 414.68 314.36 Q 412.41 308.30 407.69 303.56 Q 404.49 300.36 401.19 297.26 Q 401.13 297.21 399.62 295.97 Z"/>
<path fill="rgb(16,24,18)" fill-opacity="1.000" d="M 260.92 331.81 A 0.84 0.84 -87.7 0 1 260.32 331.16 Q 258.27 319.71 248.97 317.35 Q 242.51 315.71 236.95 319.05 Q 230.80 322.76 230.06 330.60 Q 229.69 334.53 231.08 337.72 Q 232.62 341.24 235.67 343.61 A 0.77 0.77 47.8 0 1 235.61 344.88 Q 231.70 347.31 228.23 345.21 A 1.68 1.31 88.3 0 1 227.62 344.47 Q 224.07 335.85 216.01 331.67 Q 214.70 330.99 212.26 330.23 Q 210.18 329.58 208.42 328.92 A 0.76 0.75 -56.5 0 1 208.17 327.67 L 240.21 296.91 A 0.50 0.49 45.8 0 1 240.91 296.93 Q 253.11 309.49 269.19 317.82 A 2.65 2.65 9.0 0 1 270.58 319.73 Q 271.46 324.87 270.81 330.49 A 0.89 0.84 82.9 0 1 270.29 331.20 Q 265.77 333.10 260.92 331.81 Z"/>
<path fill="rgb(16,24,18)" fill-opacity="1.000" d="M 432.75 400.71 L 429.29 398.25 L 424.75 394.96 Q 420.30 390.72 416.63 385.82 Q 415.23 383.94 414.69 381.37 Q 413.20 374.28 411.14 367.32 Q 407.44 354.82 400.94 345.81 Q 395.65 338.48 392.96 333.75 Q 392.73 325.07 397.56 318.56 Q 398.79 316.91 399.82 318.16 Q 400.30 318.74 400.32 319.86 Q 400.53 337.23 411.33 350.15 Q 414.55 354.02 417.72 355.66 Q 421.34 357.55 426.01 358.12 Q 427.40 358.30 428.74 357.90 Q 437.17 355.41 437.91 345.73 Q 438.06 343.80 439.45 342.47 Q 443.71 338.39 450.46 335.77 A 0.77 0.76 -10.6 0 1 451.50 336.48 Q 451.50 349.63 451.50 362.75 Q 451.50 370.14 450.81 376.15 Q 449.92 383.84 447.42 389.02 Q 443.68 396.74 436.40 401.96 A 0.99 0.66 -44.3 0 1 435.52 402.13 L 432.75 400.71 Z"/>
<path fill="rgb(86,123,129)" fill-opacity="1.000" d="M 59.75 331.46 Q 58.44 331.85 58.75 332.75 Q 60.06 336.56 61.16 340.43 Q 61.17 340.48 61.25 341.09 Q 61.33 341.70 62.00 341.96 Q 61.37 341.85 61.02 342.14 Q 60.74 342.37 60.77 342.96 Q 60.91 345.58 61.04 348.20 A 0.61 0.61 -86.6 0 0 61.55 348.78 Q 63.61 349.12 67.25 349.25 Q 89.63 350.05 109.51 361.20 Q 111.30 362.20 112.26 362.25 Q 113.97 362.33 115.15 360.88 Q 116.46 359.29 116.49 359.24 Q 117.15 358.28 116.79 357.00 Q 117.97 357.57 119.50 357.25 Q 126.00 355.90 130.79 354.25 Q 132.03 354.81 133.46 353.73 Q 134.87 352.66 136.34 353.45 L 148.12 359.74 A 2.88 2.56 2.6 0 1 149.25 360.84 L 155.28 371.80 A 1.57 0.49 -80.7 0 1 155.41 372.74 L 155.21 377.50 Q 154.32 377.60 154.21 378.50 Q 153.51 384.53 151.46 390.25 Q 148.63 391.92 146.83 395.68 A 1.21 1.20 42.8 0 0 146.88 396.80 Q 160.58 420.08 160.75 447.01 A 0.79 0.78 4.8 0 0 161.41 447.78 Q 165.11 448.37 169.00 447.96 Q 173.24 448.25 175.50 449.50 Q 177.34 450.52 178.71 450.50 L 182.18 451.86 A 3.73 2.17 10.2 0 1 184.25 453.62 Q 186.47 459.75 187.96 465.02 Q 188.51 466.99 187.98 468.99 Q 186.54 474.44 184.81 479.81 A 3.20 3.18 -4.5 0 1 183.20 481.68 Q 180.49 483.03 177.86 484.51 Q 177.75 484.57 176.70 484.92 Q 175.68 485.26 176.00 486.71 Q 170.93 486.75 165.86 486.75 Q 165.78 486.75 164.17 486.62 Q 162.10 486.44 160.54 488.00 Q 160.05 485.30 157.19 485.94 Q 155.16 486.39 152.19 486.31 Q 151.98 486.31 149.32 486.36 Q 145.80 486.44 142.92 484.36 Q 139.48 481.88 135.92 479.55 Q 134.01 478.30 131.72 478.25 Q 107.88 477.75 83.67 478.26 A 0.65 0.63 -0.4 0 1 83.01 477.63 L 83.22 456.88 A 1.75 1.70 -0.9 0 1 84.90 455.20 Q 99.07 454.58 111.18 455.33 Q 114.28 455.52 113.89 452.44 Q 111.95 437.16 105.26 424.73 A 1.15 1.15 -36.2 0 0 103.45 424.45 Q 92.94 434.60 82.22 443.60 A 0.79 0.76 -42.9 0 1 81.19 443.58 L 66.85 429.59 A 0.90 0.88 -49.1 0 1 66.78 428.40 Q 75.86 416.57 85.88 406.62 A 0.82 0.82 -52.9 0 0 85.70 405.32 Q 72.05 397.75 55.62 396.76 Q 53.73 396.65 53.75 398.57 L 53.94 427.70 A 0.80 0.79 -89.6 0 1 53.14 428.50 L 31.29 428.24 A 1.08 1.05 90.0 0 1 30.25 427.17 Q 30.04 404.78 30.24 382.07 Q 30.24 382.03 30.37 379.93 Q 30.57 376.71 28.68 374.07 Q 27.07 371.83 25.69 369.45 Q 25.63 369.35 24.57 367.76 Q 23.18 365.70 23.25 362.75 Q 23.38 357.55 23.52 356.06 Q 23.68 354.33 23.02 352.77 A 1.66 1.15 -57.2 0 1 22.99 351.85 Q 23.24 350.90 22.25 350.46 Q 23.12 349.57 23.00 347.50 Q 22.63 341.12 23.46 330.50 Q 23.83 331.46 26.64 326.75 A 1.21 1.16 4.0 0 1 27.25 326.24 Q 32.80 324.17 38.73 323.38 Q 42.49 322.88 46.69 323.84 Q 51.12 324.84 55.02 326.03 Q 56.84 326.59 57.00 328.49 Q 57.21 331.09 59.75 331.46 Z M 52.56 328.69 Q 50.57 327.40 43.88 326.20 Q 41.37 325.74 38.66 326.35 Q 34.38 327.32 30.06 328.10 Q 29.04 328.29 28.59 328.75 Q 27.90 329.46 28.15 330.47 A 0.54 0.49 -14.5 0 0 28.80 330.81 Q 33.78 329.53 38.73 328.09 Q 40.80 327.49 42.79 327.97 Q 48.46 329.33 53.94 331.31 Q 55.92 332.03 54.69 330.56 Q 53.76 329.46 52.56 328.69 Z M 51.02 387.63 Q 51.18 383.19 51.13 378.75 Q 51.09 374.66 53.06 372.06 Q 55.57 368.76 57.04 366.41 Q 58.21 364.55 58.25 362.16 Q 58.30 358.47 58.11 354.79 Q 58.10 354.61 58.05 351.22 Q 58.02 348.27 57.06 346.19 Q 55.61 343.00 52.61 339.76 Q 51.00 338.02 48.69 337.26 Q 46.41 336.52 44.07 336.02 Q 41.37 335.44 38.45 336.13 Q 36.05 336.70 33.67 337.37 Q 30.86 338.16 29.35 339.54 Q 25.63 342.92 25.87 348.29 Q 25.99 351.13 25.99 351.22 Q 25.97 356.86 26.03 362.51 Q 26.06 364.81 27.14 366.57 Q 28.50 368.81 30.69 371.81 Q 33.23 375.31 33.23 380.25 Q 33.21 402.59 33.31 424.93 A 0.50 0.49 0.0 0 0 33.81 425.42 L 50.22 425.26 A 0.78 0.77 0.0 0 0 51.00 424.49 Q 51.08 410.59 50.88 396.50 Q 50.83 392.96 51.02 387.63 Z M 106.47 370.28 A 0.88 0.87 42.4 0 0 106.40 368.79 Q 85.97 357.56 61.99 356.54 A 1.16 1.16 84.4 0 0 60.81 357.98 Q 61.75 361.77 60.95 364.92 Q 60.47 366.77 57.70 370.57 Q 56.41 372.34 55.19 374.17 Q 53.96 376.02 53.76 378.17 Q 53.26 383.32 53.54 389.07 A 0.52 0.52 -2.1 0 0 54.08 389.57 Q 74.23 388.78 91.33 399.00 A 0.54 0.54 -56.6 0 0 92.04 398.85 Q 94.25 395.85 96.58 392.96 Q 96.64 392.89 98.14 391.27 Q 100.16 389.09 100.45 386.00 Q 100.82 382.08 101.42 378.19 Q 101.88 375.26 102.95 373.70 Q 104.27 371.79 106.47 370.28 Z M 146.36 366.24 Q 149.14 371.08 150.51 376.52 Q 151.38 380.01 152.05 376.48 Q 152.43 374.46 152.01 372.45 Q 151.73 371.12 150.38 368.88 Q 149.20 366.91 148.17 364.85 Q 146.97 362.47 145.35 361.49 Q 143.24 360.23 140.75 359.75 Q 139.16 359.44 137.31 357.69 Q 135.29 355.76 133.15 357.20 A 0.31 0.31 41.2 0 0 133.19 357.73 Q 138.27 360.33 143.22 363.17 Q 145.28 364.35 146.36 366.24 Z M 81.66 439.81 A 0.62 0.59 45.3 0 0 82.49 439.83 Q 100.29 423.11 117.94 408.19 Q 120.07 406.40 122.73 405.92 Q 125.67 405.38 125.73 405.37 Q 128.88 404.58 132.68 403.81 A 3.12 2.84 -71.6 0 0 134.25 402.93 L 145.52 391.11 A 1.07 1.01 -29.2 0 0 145.79 390.24 Q 145.30 387.37 145.00 384.59 Q 144.60 380.85 144.04 378.99 Q 142.82 374.98 140.60 371.41 Q 139.24 369.21 137.16 367.80 Q 135.36 366.59 132.81 365.19 Q 130.55 363.94 128.32 363.71 Q 127.85 363.67 123.69 363.70 Q 121.02 363.73 118.01 364.09 A 3.61 3.57 20.7 0 0 116.05 364.96 Q 109.69 370.54 105.13 375.93 A 1.69 1.65 69.1 0 0 104.75 376.81 Q 104.23 381.28 103.91 385.76 Q 103.62 389.78 102.44 391.19 Q 86.95 409.55 70.63 428.33 A 0.55 0.53 42.6 0 0 70.67 429.07 L 81.66 439.81 Z M 151.38 448.51 Q 153.43 448.94 153.25 445.75 Q 151.91 422.29 140.39 402.08 Q 139.55 400.60 138.70 402.08 Q 137.26 404.57 135.08 405.93 Q 133.77 406.75 130.20 407.40 Q 126.34 408.10 122.62 409.37 Q 120.36 410.14 118.02 412.14 Q 114.89 414.81 111.15 417.29 A 0.66 0.65 57.3 0 0 110.96 418.18 Q 121.35 435.12 121.50 455.01 A 0.46 0.46 -1.8 0 0 121.99 455.47 Q 124.00 455.36 126.01 455.20 Q 126.25 455.18 130.51 455.08 Q 134.44 454.98 136.94 453.19 Q 140.20 450.84 143.64 448.76 Q 144.83 448.04 146.17 448.00 Q 147.54 447.96 148.91 448.01 Q 148.93 448.01 151.38 448.51 Z M 136.62 476.61 Q 141.80 479.48 146.66 482.90 A 1.58 1.57 62.5 0 0 147.57 483.19 Q 154.38 483.20 161.19 483.24 Q 164.04 483.25 166.05 482.13 Q 172.20 478.71 174.60 472.32 Q 176.28 467.88 175.02 463.59 Q 173.71 459.09 170.10 455.82 Q 169.22 455.01 168.18 453.93 Q 167.24 452.93 166.14 452.14 Q 164.67 451.06 162.42 451.04 Q 155.01 450.96 147.04 451.00 A 3.77 3.71 25.7 0 0 144.79 451.77 Q 141.19 454.52 137.09 456.88 Q 135.25 457.94 133.03 457.95 Q 109.76 458.03 86.52 458.00 A 0.52 0.52 0.0 0 0 86.00 458.52 L 86.00 474.94 A 0.56 0.56 0.0 0 0 86.56 475.50 Q 109.84 475.46 132.48 475.55 Q 134.73 475.56 136.62 476.61 Z M 182.56 470.90 Q 181.27 474.41 180.46 478.20 Q 179.82 481.19 181.65 478.74 Q 183.27 476.57 183.72 473.94 Q 184.30 470.57 185.29 467.29 A 1.73 1.70 -44.4 0 0 185.31 466.33 Q 183.17 458.50 181.44 455.31 Q 180.53 453.64 180.30 455.10 Q 180.24 455.46 180.34 455.89 Q 181.38 460.18 182.06 461.69 Q 183.08 463.93 183.35 466.32 Q 183.56 468.18 182.56 470.90 Z"/>
<path fill="rgb(16,24,18)" fill-opacity="1.000" d="M 314.00 324.96 Q 332.35 326.68 346.06 336.44 Q 350.39 339.52 347.39 341.89 Q 346.16 342.86 343.31 343.07 Q 332.32 343.87 328.00 354.00 Q 325.39 360.12 328.41 366.67 Q 332.08 374.60 339.42 376.48 Q 346.40 378.27 352.63 374.54 Q 359.35 370.52 360.75 361.50 Q 361.26 358.17 359.44 351.29 A 0.99 0.90 59.7 0 1 359.62 350.43 Q 361.00 348.82 363.02 348.15 A 0.97 0.93 53.5 0 1 363.90 348.30 Q 378.91 359.54 385.09 377.29 A 1.43 0.75 59.4 0 1 385.14 378.24 L 383.00 383.21 Q 382.25 383.98 381.50 384.00 Q 365.31 384.46 358.22 398.55 A 0.87 0.84 -77.1 0 1 357.50 399.02 Q 349.13 399.26 340.69 395.81 Q 325.42 389.58 318.52 375.57 Q 316.91 372.30 315.80 367.16 Q 315.18 364.28 314.59 361.40 Q 314.36 360.30 313.76 355.57 Q 312.20 343.38 301.58 335.62 A 1.01 1.01 -59.8 0 1 301.26 334.40 Q 303.54 329.30 307.08 326.15 Q 308.46 324.92 310.32 324.82 Q 312.15 324.72 314.00 324.96 Z"/>
<path fill="rgb(87,126,132)" fill-opacity="1.000" d="M 52.56 328.69 Q 53.76 329.46 54.69 330.56 Q 55.92 332.03 53.94 331.31 Q 48.46 329.33 42.79 327.97 Q 40.80 327.49 38.73 328.09 Q 33.78 329.53 28.80 330.81 A 0.54 0.49 -14.5 0 1 28.15 330.47 Q 27.90 329.46 28.59 328.75 Q 29.04 328.29 30.06 328.10 Q 34.38 327.32 38.66 326.35 Q 41.37 325.74 43.88 326.20 Q 50.57 327.40 52.56 328.69 Z"/>
<path fill="rgb(67,94,96)" fill-opacity="1.000" d="M 59.75 331.46 Q 67.42 331.89 79.56 333.44 Q 92.14 335.04 102.36 339.00 Q 116.67 344.54 128.69 352.06 Q 129.81 352.76 130.79 354.25 Q 126.00 355.90 119.50 357.25 Q 117.97 357.57 116.79 357.00 Q 91.41 342.36 62.00 341.96 Q 61.33 341.70 61.25 341.09 Q 61.17 340.48 61.16 340.43 Q 60.06 336.56 58.75 332.75 Q 58.44 331.85 59.75 331.46 Z"/>
<path fill="rgb(115,151,159)" fill-opacity="1.000" d="M 50.88 396.50 Q 51.08 410.59 51.00 424.49 A 0.78 0.77 -0.0 0 1 50.22 425.26 L 33.81 425.42 A 0.50 0.49 0.0 0 1 33.31 424.93 Q 33.21 402.59 33.23 380.25 Q 33.23 375.31 30.69 371.81 Q 28.50 368.81 27.14 366.57 Q 26.06 364.81 26.03 362.51 Q 25.97 356.86 25.99 351.22 Q 25.99 351.13 25.87 348.29 Q 25.63 342.92 29.35 339.54 Q 30.86 338.16 33.67 337.37 Q 36.05 336.70 38.45 336.13 Q 41.37 335.44 44.07 336.02 Q 46.41 336.52 48.69 337.26 Q 51.00 338.02 52.61 339.76 Q 55.61 343.00 57.06 346.19 Q 58.02 348.27 58.05 351.22 Q 58.10 354.61 58.11 354.79 Q 58.30 358.47 58.25 362.16 Q 58.21 364.55 57.04 366.41 Q 55.57 368.76 53.06 372.06 Q 51.09 374.66 51.13 378.75 Q 51.18 383.19 51.02 387.63 Q 50.83 392.96 50.88 396.50 Z"/>
<path fill="rgb(100,137,141)" fill-opacity="1.000" d="M 62.00 341.96 Q 91.41 342.36 116.79 357.00 Q 117.15 358.28 116.49 359.24 Q 116.46 359.29 115.15 360.88 Q 113.97 362.33 112.26 362.25 Q 111.30 362.20 109.51 361.20 Q 89.63 350.05 67.25 349.25 Q 63.61 349.12 61.55 348.78 A 0.61 0.61 -86.6 0 1 61.04 348.20 Q 60.91 345.58 60.77 342.96 Q 60.74 342.37 61.02 342.14 Q 61.37 341.85 62.00 341.96 Z"/>
<path fill="rgb(16,24,18)" fill-opacity="1.000" d="M 190.52 345.27 Q 198.70 346.15 204.16 342.35 A 1.64 1.36 -57.6 0 1 205.06 342.06 Q 208.79 342.16 212.09 345.46 A 0.81 0.81 48.4 0 1 212.02 346.66 Q 210.04 348.28 208.75 349.95 Q 198.03 363.85 195.02 381.19 A 0.93 0.87 84.0 0 1 194.49 381.89 L 183.77 386.50 A 0.57 0.55 63.6 0 1 183.07 386.25 Q 176.98 375.19 169.31 365.15 A 0.56 0.55 49.5 0 1 169.36 364.41 L 189.09 345.75 A 1.80 1.78 26.1 0 1 190.52 345.27 Z"/>
<path fill="rgb(16,24,18)" fill-opacity="1.000" d="M 268.14 363.32 Q 254.16 364.00 252.79 378.75 A 0.50 0.45 -82.5 0 1 252.25 379.21 Q 251.19 379.00 250.67 377.82 Q 247.46 370.38 247.79 361.18 Q 247.85 359.50 249.06 358.34 Q 251.52 356.00 255.30 354.05 Q 274.24 344.28 294.95 349.99 A 1.43 1.43 -82.1 0 1 296.00 351.38 Q 295.99 352.70 296.10 353.96 Q 296.23 355.42 296.21 356.55 Q 296.04 365.14 298.71 373.40 A 1.38 1.37 -35.2 0 1 298.48 374.70 Q 293.51 380.94 287.60 386.63 Q 285.33 388.82 283.37 389.68 Q 280.94 390.74 278.21 391.00 Q 276.24 391.19 277.62 389.77 Q 285.34 381.78 281.84 372.67 Q 280.40 368.93 277.59 366.61 Q 275.59 364.96 273.13 364.03 Q 270.90 363.19 268.14 363.32 Z"/>
<path fill="rgb(101,136,142)" fill-opacity="1.000" d="M 22.25 350.46 Q 23.24 350.90 22.99 351.85 A 1.66 1.15 -57.2 0 0 23.02 352.77 Q 23.68 354.33 23.52 356.06 Q 23.38 357.55 23.25 362.75 Q 23.18 365.70 24.57 367.76 Q 25.63 369.35 25.69 369.45 Q 27.07 371.83 28.68 374.07 Q 30.57 376.71 30.37 379.93 Q 30.24 382.03 30.24 382.07 Q 30.04 404.78 30.25 427.17 A 1.08 1.05 90.0 0 0 31.29 428.24 L 53.14 428.50 A 0.80 0.79 -89.6 0 0 53.94 427.70 L 53.75 398.57 Q 53.73 396.65 55.62 396.76 Q 72.05 397.75 85.70 405.32 A 0.82 0.82 -52.9 0 1 85.88 406.62 Q 75.86 416.57 66.78 428.40 A 0.90 0.88 -49.1 0 0 66.85 429.59 L 81.19 443.58 A 0.79 0.76 -42.9 0 0 82.22 443.60 Q 92.94 434.60 103.45 424.45 A 1.15 1.15 -36.2 0 1 105.26 424.73 Q 111.95 437.16 113.89 452.44 Q 114.28 455.52 111.18 455.33 Q 99.07 454.58 84.90 455.20 A 1.75 1.70 -0.9 0 0 83.22 456.88 L 83.01 477.63 A 0.65 0.63 -0.4 0 0 83.67 478.26 Q 107.88 477.75 131.72 478.25 Q 134.01 478.30 135.92 479.55 Q 139.48 481.88 142.92 484.36 Q 145.80 486.44 149.32 486.36 Q 151.98 486.31 152.19 486.31 Q 155.16 486.39 157.19 485.94 Q 160.05 485.30 160.54 488.00 L 151.93 496.08 A 1.79 1.43 18.6 0 1 150.78 496.50 L 51.60 496.50 A 1.72 1.72 -85.0 0 0 49.91 497.92 Q 48.57 505.28 42.94 511.44 Q 42.58 511.83 41.75 511.71 Q 47.20 505.70 48.25 498.50 Q 48.50 496.79 48.90 495.60 Q 49.52 493.77 49.51 492.77 Q 49.31 472.24 32.37 464.24 Q 26.43 461.44 20.28 461.25 Q 13.88 461.06 7.71 463.28 Q 7.12 463.49 5.12 464.70 Q 3.81 465.48 2.25 465.71 Q 6.40 462.29 11.64 461.20 A 2.03 2.02 -6.0 0 0 13.25 459.22 Q 13.25 437.20 13.25 415.50 Q 13.25 408.69 13.46 395.51 Q 13.74 377.51 13.25 364.25 Q 13.17 362.14 13.62 360.51 Q 14.01 359.14 15.58 357.47 Q 18.90 353.95 22.25 350.46 Z M 28.44 461.06 Q 44.77 466.22 49.79 482.59 A 0.68 0.68 -8.7 0 0 50.44 483.06 L 76.94 482.94 A 0.38 0.38 -0.8 0 0 77.31 482.56 L 77.23 448.22 A 2.16 2.06 23.5 0 0 76.60 446.73 L 64.70 434.83 A 3.67 3.64 -22.2 0 0 62.10 433.75 L 28.19 433.75 A 0.52 0.51 90.0 0 0 27.68 434.27 L 27.75 459.75 A 1.45 0.94 -85.0 0 0 28.44 461.06 Z"/>
<path fill="rgb(16,24,18)" fill-opacity="1.000" d="M 226.20 401.55 Q 220.12 396.71 216.94 390.01 Q 213.75 383.30 214.57 375.96 Q 215.56 367.07 221.56 359.82 Q 224.34 356.46 227.13 356.37 Q 229.17 356.29 229.09 358.34 Q 228.11 382.05 246.79 393.64 A 2.02 1.78 19.9 0 1 247.75 395.39 L 247.20 402.63 A 1.82 1.61 -10.8 0 1 246.11 404.04 Q 235.22 408.73 226.20 401.55 Z"/>
<path fill="rgb(101,136,142)" fill-opacity="1.000" d="M 106.47 370.28 Q 104.27 371.79 102.95 373.70 Q 101.88 375.26 101.42 378.19 Q 100.82 382.08 100.45 386.00 Q 100.16 389.09 98.14 391.27 Q 96.64 392.89 96.58 392.96 Q 94.25 395.85 92.04 398.85 A 0.54 0.54 -56.6 0 1 91.33 399.00 Q 74.23 388.78 54.08 389.57 A 0.52 0.52 -1.7 0 1 53.54 389.07 Q 53.26 383.32 53.76 378.17 Q 53.96 376.02 55.19 374.17 Q 56.41 372.34 57.70 370.57 Q 60.47 366.77 60.95 364.92 Q 61.75 361.77 60.81 357.98 A 1.16 1.16 84.4 0 1 61.99 356.54 Q 85.97 357.56 106.40 368.79 A 0.88 0.87 42.4 0 1 106.47 370.28 Z"/>
<path fill="rgb(87,126,132)" fill-opacity="1.000" d="M 143.22 363.17 Q 138.27 360.33 133.19 357.73 A 0.31 0.31 41.2 0 1 133.15 357.20 Q 135.29 355.76 137.31 357.69 Q 139.16 359.44 140.75 359.75 Q 143.24 360.23 145.35 361.49 Q 146.97 362.47 148.17 364.85 Q 149.20 366.91 150.38 368.88 Q 151.73 371.12 152.01 372.45 Q 152.43 374.46 152.05 376.48 Q 151.38 380.01 150.51 376.52 Q 149.14 371.08 146.36 366.24 Q 145.28 364.35 143.22 363.17 Z"/>
<path fill="rgb(115,151,159)" fill-opacity="1.000" d="M 81.66 439.81 L 70.67 429.07 A 0.55 0.53 42.6 0 1 70.63 428.33 Q 86.95 409.55 102.44 391.19 Q 103.62 389.78 103.91 385.76 Q 104.23 381.28 104.75 376.81 A 1.69 1.65 69.1 0 1 105.13 375.93 Q 109.69 370.54 116.05 364.96 A 3.61 3.57 20.7 0 1 118.01 364.09 Q 121.02 363.73 123.69 363.70 Q 127.85 363.67 128.32 363.71 Q 130.55 363.94 132.81 365.19 Q 135.36 366.59 137.16 367.80 Q 139.24 369.21 140.60 371.41 Q 142.82 374.98 144.04 378.99 Q 144.60 380.85 145.00 384.59 Q 145.30 387.37 145.79 390.24 A 1.07 1.01 -29.2 0 1 145.52 391.11 L 134.25 402.93 A 3.12 2.84 -71.6 0 1 132.68 403.81 Q 128.88 404.58 125.73 405.37 Q 125.67 405.38 122.73 405.92 Q 120.07 406.40 117.94 408.19 Q 100.29 423.11 82.49 439.83 A 0.62 0.59 45.3 0 1 81.66 439.81 Z"/>
<path fill="rgb(67,94,96)" fill-opacity="1.000" d="M 155.21 377.50 Q 155.71 378.14 156.15 378.80 Q 163.60 389.69 168.84 401.71 Q 172.64 410.43 174.81 420.73 Q 177.90 435.43 178.71 450.50 Q 177.34 450.52 175.50 449.50 Q 173.24 448.25 169.00 447.96 Q 168.33 416.55 151.46 390.25 Q 153.51 384.53 154.21 378.50 Q 154.32 377.60 155.21 377.50 Z"/>
<path fill="rgb(100,137,141)" fill-opacity="1.000" d="M 151.46 390.25 Q 168.33 416.55 169.00 447.96 Q 165.11 448.37 161.41 447.78 A 0.79 0.78 4.8 0 1 160.75 447.01 Q 160.58 420.08 146.88 396.80 A 1.21 1.20 42.8 0 1 146.83 395.68 Q 148.63 391.92 151.46 390.25 Z"/>
<path fill="rgb(16,24,18)" fill-opacity="1.000" d="M 205.49 442.90 Q 205.65 447.49 206.75 452.00 A 0.41 0.40 83.2 0 1 206.36 452.50 L 197.27 452.50 A 1.03 1.02 88.8 0 1 196.25 451.51 Q 196.08 446.88 195.47 442.31 Q 194.80 437.29 194.59 433.15 Q 193.73 416.46 188.99 400.19 A 1.27 1.27 68.2 0 1 189.62 398.71 Q 196.80 394.96 205.38 392.47 A 0.62 0.61 73.3 0 1 206.14 392.89 Q 210.38 406.93 220.14 417.26 A 0.75 0.75 54.3 0 1 219.95 418.43 Q 210.07 423.79 206.69 433.88 Q 205.32 437.98 205.49 442.90 Z"/>
<path fill="rgb(57,154,170)" fill-opacity="1.000" d="M 424.75 394.96 L 429.29 398.25 Q 428.30 402.60 425.69 405.44 Q 420.66 410.90 419.02 412.52 Q 413.77 417.70 406.54 419.25 Q 407.59 415.65 404.50 414.04 Q 414.14 407.18 418.00 403.50 Q 420.25 401.36 424.75 394.96 Z"/>
<path fill="rgb(16,24,18)" fill-opacity="1.000" d="M 266.69 425.31 Q 263.98 422.88 262.47 420.44 Q 261.12 418.27 261.40 415.27 Q 261.98 409.19 264.63 403.26 Q 265.54 401.22 267.67 401.88 Q 278.11 405.12 288.82 403.20 Q 293.38 402.38 300.62 400.05 Q 306.45 398.16 312.01 395.59 A 1.30 1.29 -36.2 0 1 313.42 395.80 Q 322.51 403.97 334.12 407.77 Q 344.54 411.19 355.54 414.67 A 0.69 0.63 18.9 0 1 356.00 415.51 L 354.11 420.60 A 1.61 1.50 24.0 0 1 351.91 421.36 Q 345.37 418.05 338.60 416.52 Q 327.06 413.92 315.94 418.69 Q 307.02 422.51 304.20 423.79 A 0.56 0.55 -27.3 0 1 303.48 423.57 Q 303.00 422.78 302.73 421.89 Q 302.31 420.55 302.12 420.16 Q 298.96 413.65 292.68 412.92 Q 286.92 412.26 282.60 416.07 Q 277.53 420.56 279.12 428.58 A 0.72 0.72 82.6 0 1 278.46 429.44 Q 271.67 429.79 266.69 425.31 Z"/>
<path fill="rgb(16,24,18)" fill-opacity="1.000" d="M 387.21 401.25 Q 395.13 408.61 404.50 414.04 Q 407.59 415.65 406.54 419.25 L 406.04 424.25 Q 403.45 432.82 399.20 440.66 A 2.85 2.82 -88.8 0 1 397.96 441.86 Q 392.64 444.53 387.79 445.82 A 0.50 0.48 76.0 0 1 387.20 445.45 Q 384.80 434.90 380.69 428.06 Q 374.67 418.07 368.27 408.89 A 2.36 2.35 -46.2 0 1 368.22 406.27 Q 373.50 398.07 383.43 398.00 A 2.38 1.81 63.8 0 1 385.03 398.80 L 387.21 401.25 Z"/>
<path fill="rgb(95,155,144)" fill-opacity="1.000" d="M 429.29 398.25 L 432.75 400.71 Q 431.76 401.23 431.72 402.25 A 1.36 0.96 76.0 0 1 431.39 403.10 Q 427.59 406.88 424.41 411.17 Q 422.63 413.56 420.42 415.16 Q 418.83 416.32 417.25 417.50 Q 416.02 418.43 413.83 419.31 Q 410.52 420.66 408.31 423.31 Q 407.40 424.41 406.04 424.25 L 406.54 419.25 Q 413.77 417.70 419.02 412.52 Q 420.66 410.90 425.69 405.44 Q 428.30 402.60 429.29 398.25 Z"/>
<path fill="rgb(101,136,142)" fill-opacity="1.000" d="M 148.91 448.01 Q 147.54 447.96 146.17 448.00 Q 144.83 448.04 143.64 448.76 Q 140.20 450.84 136.94 453.19 Q 134.44 454.98 130.51 455.08 Q 126.25 455.18 126.01 455.20 Q 124.00 455.36 121.99 455.47 A 0.46 0.46 -1.8 0 1 121.50 455.01 Q 121.35 435.12 110.96 418.18 A 0.66 0.65 57.3 0 1 111.15 417.29 Q 114.89 414.81 118.02 412.14 Q 120.36 410.14 122.62 409.37 Q 126.34 408.10 130.20 407.40 Q 133.77 406.75 135.08 405.93 Q 137.26 404.57 138.70 402.08 Q 139.55 400.60 140.39 402.08 Q 151.91 422.29 153.25 445.75 Q 153.43 448.94 151.38 448.51 Q 148.93 448.01 148.91 448.01 Z"/>
<path fill="rgb(16,24,18)" fill-opacity="1.000" d="M 272.01 442.30 A 0.60 0.56 -79.8 0 1 272.42 442.94 L 271.46 451.51 A 1.11 1.04 -86.6 0 1 270.42 452.50 Q 247.22 452.50 225.10 452.50 Q 221.57 452.50 221.41 452.46 Q 219.33 451.98 218.69 449.31 Q 216.45 440.09 222.08 433.10 Q 230.75 422.35 244.15 422.73 A 1.85 1.85 74.0 0 1 245.63 423.55 Q 255.37 438.03 272.01 442.30 Z"/>
<path fill="rgb(16,24,18)" fill-opacity="1.000" d="M 358.71 437.59 Q 362.06 437.43 364.50 437.00 Q 367.30 436.51 368.06 438.73 Q 368.53 440.11 368.58 440.22 Q 370.43 444.27 371.81 449.35 A 1.25 1.24 75.6 0 1 370.90 450.89 Q 365.29 452.22 359.75 452.39 Q 346.35 452.80 332.94 452.33 A 0.65 0.64 -5.2 0 1 332.33 451.83 Q 330.95 446.03 329.44 443.81 Q 326.11 438.95 322.39 434.53 A 1.10 1.09 -31.7 0 1 322.80 432.82 Q 331.27 429.13 340.44 430.48 A 1.76 1.58 68.4 0 1 341.30 430.91 Q 346.35 435.62 352.95 437.17 Q 355.44 437.76 358.71 437.59 Z"/>
<path fill="rgb(115,151,159)" fill-opacity="1.000" d="M 28.44 461.06 A 1.45 0.94 -85.0 0 1 27.75 459.75 L 27.68 434.27 A 0.52 0.51 -90.0 0 1 28.19 433.75 L 62.10 433.75 A 3.67 3.64 -22.2 0 1 64.70 434.83 L 76.60 446.73 A 2.16 2.06 23.5 0 1 77.23 448.22 L 77.31 482.56 A 0.38 0.38 -0.8 0 1 76.94 482.94 L 50.44 483.06 A 0.68 0.68 -8.7 0 1 49.79 482.59 Q 44.77 466.22 28.44 461.06 Z"/>
<path fill="rgb(16,24,18)" fill-opacity="1.000" d="M 285.49 452.31 A 0.75 0.73 87.3 0 1 284.77 451.64 Q 284.27 447.33 285.23 443.35 A 0.78 0.78 6.5 0 1 285.99 442.75 Q 297.53 442.71 308.22 438.50 A 0.82 0.80 -34.8 0 1 309.06 438.64 Q 315.22 444.17 318.41 451.74 A 0.51 0.49 78.5 0 1 317.96 452.44 L 285.49 452.31 Z"/>
<path fill="rgb(115,151,159)" fill-opacity="1.000" d="M 132.48 475.55 Q 109.84 475.46 86.56 475.50 A 0.56 0.56 0.0 0 1 86.00 474.94 L 86.00 458.52 A 0.52 0.52 0.0 0 1 86.52 458.00 Q 109.76 458.03 133.03 457.95 Q 135.25 457.94 137.09 456.88 Q 141.19 454.52 144.79 451.77 A 3.77 3.71 25.7 0 1 147.04 451.00 Q 155.01 450.96 162.42 451.04 Q 164.67 451.06 166.14 452.14 Q 167.24 452.93 168.18 453.93 Q 169.22 455.01 170.10 455.82 Q 173.71 459.09 175.02 463.59 Q 176.28 467.88 174.60 472.32 Q 172.20 478.71 166.05 482.13 Q 164.04 483.25 161.19 483.24 Q 154.38 483.20 147.57 483.19 A 1.58 1.57 62.5 0 1 146.66 482.90 Q 141.80 479.48 136.62 476.61 Q 134.73 475.56 132.48 475.55 Z"/>
<path fill="rgb(87,126,132)" fill-opacity="1.000" d="M 183.35 466.32 Q 183.08 463.93 182.06 461.69 Q 181.38 460.18 180.34 455.89 Q 180.24 455.46 180.30 455.10 Q 180.53 453.64 181.44 455.31 Q 183.17 458.50 185.31 466.33 A 1.73 1.70 -44.4 0 1 185.29 467.29 Q 184.30 470.57 183.72 473.94 Q 183.27 476.57 181.65 478.74 Q 179.82 481.19 180.46 478.20 Q 181.27 474.41 182.56 470.90 Q 183.56 468.18 183.35 466.32 Z"/>
<path fill="rgb(115,151,159)" fill-opacity="1.000" d="M 41.75 511.71 Q 41.14 511.61 40.69 512.00 Q 35.19 512.00 29.69 512.00 Q 29.34 511.12 30.00 511.00 Q 30.81 510.86 30.95 510.79 Q 36.07 508.28 39.25 502.50 Q 41.74 497.97 42.36 493.45 Q 42.98 488.95 41.35 484.20 Q 39.02 477.41 33.50 473.13 Q 28.10 468.94 21.64 468.35 Q 15.06 467.74 8.50 471.00 Q 3.72 473.38 1.26 477.25 Q 1.00 477.65 0.72 477.72 Q 0.23 477.84 0.00 477.19 Q 0.00 472.81 0.00 468.44 Q 0.49 466.57 2.25 465.71 Q 3.81 465.48 5.12 464.70 Q 7.12 463.49 7.71 463.28 Q 13.88 461.06 20.28 461.25 Q 26.43 461.44 32.37 464.24 Q 49.31 472.24 49.51 492.77 Q 49.52 493.77 48.90 495.60 Q 48.50 496.79 48.25 498.50 Q 47.20 505.70 41.75 511.71 Z"/>
<path fill="rgb(63,106,142)" fill-opacity="1.000" d="M 29.69 512.00 Q 14.84 512.00 0.00 512.00 Q 0.00 494.59 0.00 477.19 Q 0.23 477.84 0.72 477.72 Q 1.00 477.65 1.26 477.25 Q 3.72 473.38 8.50 471.00 Q 15.06 467.74 21.64 468.35 Q 28.10 468.94 33.50 473.13 Q 39.02 477.41 41.35 484.20 Q 42.98 488.95 42.36 493.45 Q 41.74 497.97 39.25 502.50 Q 36.07 508.28 30.95 510.79 Q 30.81 510.86 30.00 511.00 Q 29.34 511.12 29.69 512.00 Z"/>
</svg>